<svg width="375" height="270" viewBox="0 0 375 270" fill="none" xmlns="http://www.w3.org/2000/svg">
<path fill-rule="evenodd" clip-rule="evenodd" d="M309.849 33.7644C308.159 34.5888 306.527 35.1266 305.229 35.3328C304.578 35.4343 304.014 35.4563 303.546 35.3759C303.088 35.2964 302.688 35.1046 302.494 34.7179L303.057 34.4429L303.088 34.5051L302.807 34.6421L302.515 34.7572L300.137 28.8003L300.135 28.7928C299.76 27.6966 300.084 26.5453 300.872 25.5239C301.661 24.4946 302.914 23.5551 304.493 22.7826C306.075 22.0128 307.587 21.6041 308.883 21.6163C310.171 21.6247 311.28 22.0778 311.911 23.0491L311.914 23.0561L315.147 28.5959L314.606 28.913L311.379 23.3793L311.649 23.2217L311.386 23.3924C310.892 22.6385 310.039 22.2583 308.876 22.2415C307.719 22.2284 306.283 22.6049 304.768 23.3456C303.251 24.084 302.072 24.9824 301.369 25.9046C300.665 26.8305 300.439 27.7368 300.728 28.5908L300.432 28.6922L300.723 28.5763L303.097 34.5262L302.524 34.7801L302.494 34.7179L303.057 34.4429C303.112 34.5636 303.287 34.694 303.654 34.7581C304.751 34.9615 307.118 34.4078 309.575 33.2008L309.849 33.7644ZM315.497 109.774C323.221 113.633 334.89 113.217 345.964 107.81C357.044 102.412 364.554 93.4737 366.269 85.0125L366.883 85.1374C365.104 93.86 357.458 102.899 346.239 108.373C335.019 113.843 323.187 114.304 315.217 110.335L315.497 109.774Z" fill="white" fill-opacity="0.23"/>
<path fill-rule="evenodd" clip-rule="evenodd" d="M312.844 25.1517C313.308 24.9853 313.774 24.826 314.242 24.6737C320.504 22.6207 326.441 21.8617 331.067 22.0937C333.38 22.2106 335.366 22.5749 336.91 23.1595C338.449 23.7445 339.567 24.5507 340.084 25.6053C340.7 26.874 340.41 28.4317 339.48 30.1256C336.68 35.2042 327.94 41.9917 316.571 47.5455C308.993 51.2399 301.686 53.6698 295.972 54.6126C293.113 55.0835 290.652 55.1836 288.739 54.8735C286.833 54.563 285.427 53.8321 284.805 52.5671C284.275 51.4704 284.35 50.031 284.889 48.3825C286.519 43.4442 292.427 36.4061 301.219 30.8214L301.554 31.3499C295.757 35.027 291.229 39.3626 288.401 43.2459C286.986 45.1866 285.997 47.0152 285.485 48.5785C284.969 50.1437 284.943 51.4288 285.368 52.2921C285.848 53.2844 287.024 53.9583 288.84 54.2557C294.282 55.1536 305.006 52.4969 316.296 46.9819C323.827 43.309 330.201 39.0679 334.398 35.2024C336.497 33.271 338.05 31.4312 338.932 29.8239C339.816 28.2091 340.009 26.8684 339.521 25.8798C339.119 25.0436 338.148 24.2973 336.687 23.7459C332.307 22.0764 323.723 22.2176 314.437 25.269C313.977 25.4196 313.515 25.5758 313.057 25.7414L312.844 25.1517ZM243.286 74.1822L243.469 73.9274L243.668 74.1673C243.801 74.4572 243.768 74.7659 243.688 75.139C243.43 76.2464 242.523 77.9786 241.221 79.8109C239.785 81.8147 238.326 83.3257 237.341 83.8181C237.032 83.9636 236.705 84.0613 236.391 83.8569L236.19 83.6175C236.059 83.3271 236.091 83.018 236.171 82.6448C236.428 81.5383 237.336 79.8062 238.64 77.9711C240.075 75.9696 241.532 74.4577 242.518 73.9662C242.825 73.8198 243.154 73.7225 243.469 73.9274L243.286 74.1822L243.104 74.4371L243.106 74.4343L243.106 74.4399L243.104 74.4371L243.106 74.4343L243.106 74.4399C243.091 74.4315 242.969 74.4399 242.792 74.5288C242.023 74.8926 240.533 76.3853 239.149 78.3354C238.3 79.5261 237.625 80.6839 237.207 81.6076C236.997 82.0691 236.852 82.4741 236.782 82.7842C236.705 83.0938 236.729 83.3103 236.755 83.3421L236.759 83.3505L236.743 83.3612L236.755 83.3472L236.759 83.3505L236.743 83.3612L236.755 83.3472L236.752 83.3505L236.753 83.3449L236.755 83.3472L236.752 83.3505L236.753 83.3449C236.767 83.3533 236.891 83.3439 237.066 83.2551C237.836 82.8903 239.327 81.399 240.71 79.4466C241.559 78.2569 242.233 77.1008 242.653 76.1768C242.862 75.7147 243.006 75.3107 243.077 75.0002C243.154 74.6906 243.131 74.4741 243.105 74.4423L243.101 74.4338L243.116 74.4217L243.104 74.4371L243.101 74.4338L243.116 74.4217L243.104 74.4371L243.286 74.1822Z" fill="white" fill-opacity="0.23"/>
<path fill-rule="evenodd" clip-rule="evenodd" d="M336.467 105.576C338.836 104.707 341.16 103.717 343.428 102.611C356.937 96.0214 367.187 85.9904 372.864 75.1017L373.152 74.5503L373.426 75.1133L373.144 75.2513L372.941 75.0142C389.116 61.1106 398.338 48.5402 402.734 37.8769C407.129 27.2126 406.705 18.4648 403.622 12.138C398.524 1.69069 386.125 -2.23288 375.769 2.81445C375.031 3.17469 374.314 3.57497 373.62 4.0135C367.866 7.64338 364.192 13.2411 361.962 17.9391C361.042 19.8827 360.259 21.8887 359.62 23.9423C359.435 24.5416 359.264 25.1455 359.11 25.7535C359.001 26.18 358.955 26.4096 358.953 26.4101L358.647 26.346L358.95 26.2651L358.952 26.2726L359.124 26.9213L358.516 26.6374C350.558 22.9266 340.808 21.5241 330.535 22.6965L330.465 22.0745C340.837 20.8914 350.698 22.3014 358.781 26.0697L358.649 26.3535L358.345 26.4344L358.344 26.4269L358.325 26.3554L358.34 26.2829C358.354 26.2558 361.495 10.9431 373.286 3.48272C373.999 3.03271 374.736 2.62167 375.494 2.2514C380.818 -0.345451 386.678 -0.635862 391.863 1.07105C397.048 2.7761 401.56 6.48268 404.185 11.8634C407.362 18.3787 407.762 27.33 403.313 38.1172C398.863 48.904 389.575 61.5389 373.349 75.4884L373.041 75.7536L372.86 75.3827L373.141 75.2457L373.42 75.3907C367.671 86.4141 357.326 96.5298 343.702 103.174C341.415 104.29 339.072 105.289 336.682 106.165L336.467 105.576V105.576ZM329.271 107.562C330.108 107.423 330.941 107.264 331.77 107.085L332.058 107.916C331.22 108.097 330.38 108.257 329.537 108.397L329.271 107.562ZM288.393 43.2506C280.783 50.993 275.763 60.0298 273.999 69.0143L273.938 69.3192L273.626 69.2593L273.684 68.9521L273.982 69.0503C273.587 70.2344 272.501 71.2328 270.933 71.9997C267.852 73.4967 262.838 74.1303 256.95 73.1333C254.21 72.6675 251.456 72.0877 249.09 71.7753C246.729 71.4559 244.75 71.432 243.646 71.9829C241 73.2699 238.493 75.7914 236.861 78.3663C236.043 79.6528 235.444 80.9524 235.147 82.1038C234.847 83.2574 234.859 84.2521 235.196 84.9354C235.259 85.064 235.332 85.1828 235.417 85.2903C235.606 85.5232 235.845 85.5882 236.348 85.5209C237.087 85.4138 238.205 84.9391 239.624 84.4972C241.045 84.0538 242.784 83.6479 244.829 83.6881C254.225 83.8719 261.119 87.9858 266.755 91.6634C269.573 93.5017 272.081 95.2335 274.419 96.3179C276.76 97.4062 278.9 97.8439 281.051 97.1765L281.144 97.4758L281.007 97.1948L281.018 97.1892L281.228 97.0863L281.386 97.2593C291.152 107.995 308.425 112.165 326.546 108.413L326.674 109.025C308.393 112.809 290.896 108.629 280.923 97.6802L281.155 97.4697L281.292 97.7522L281.281 97.7578L281.261 97.7681L281.236 97.7747C278.885 98.5065 276.559 98.0071 274.155 96.8866C266.938 93.5144 258.635 84.5814 244.816 84.3143C242.211 84.2643 240.119 84.9681 238.514 85.5265C237.71 85.8057 237.031 86.0512 236.441 86.14C235.865 86.2364 235.287 86.148 234.924 85.6775C234.811 85.5323 234.713 85.3756 234.632 85.2099C234.2 84.3167 234.222 83.1822 234.54 81.948C235.509 78.2489 239.191 73.471 243.371 71.4199C244.732 70.7661 246.77 70.8414 249.173 71.1542C251.573 71.4722 254.33 72.054 257.054 72.5151C262.837 73.5004 267.755 72.8555 270.658 71.4362C272.142 70.7142 273.079 69.7971 273.386 68.8539L273.473 68.5939L273.75 68.6453L273.691 68.9535L273.384 68.8927C275.179 59.7651 280.263 50.6296 287.946 42.8115L288.393 43.2506Z" fill="white" fill-opacity="0.23"/>
<path fill-rule="evenodd" clip-rule="evenodd" d="M396.658 12.555L396.406 12.7412C392.32 7.21496 384.945 5.58287 378.649 8.65064C378.116 8.9112 377.598 9.20096 377.097 9.5186C372.989 12.1234 370.507 16.8452 369.037 21.3033C367.563 25.7577 367.099 29.93 366.968 31.3966L366.656 31.3685L366.856 31.1277C370.379 34.0402 373.26 37.6074 375.294 41.7821C378.409 48.1641 379.181 55.2247 377.948 62.3086L377.639 62.2553L377.418 62.0327C388.202 51.3371 394.406 41.835 397.349 33.8803C400.294 25.9242 399.981 19.5291 397.772 15.0004C397.386 14.2076 396.929 13.4516 396.406 12.7416L396.658 12.555L396.91 12.3689C397.455 13.1095 397.933 13.8985 398.335 14.7259C400.638 19.4482 400.925 26.0308 397.937 34.0977C394.95 42.1675 388.689 51.7365 377.859 62.4784L377.162 63.1696L377.331 62.202C378.542 55.2279 377.782 48.3124 374.731 42.0571C372.736 37.9656 369.916 34.4718 366.457 31.6098L366.33 31.506L366.345 31.3409C366.478 29.8473 366.945 25.6338 368.441 21.1074C369.938 16.5815 372.46 11.7273 376.761 8.99062C377.281 8.65934 377.819 8.35785 378.374 8.0876C384.921 4.89309 392.639 6.59159 396.91 12.3689L396.658 12.555ZM324.262 86.8298L323.957 86.8438L324.231 86.71L324.262 86.8298L323.957 86.8438L324.231 86.71L323.958 86.8428L324.054 86.5543L324.231 86.71L323.958 86.8428L324.054 86.5543L323.971 86.8022L323.926 86.5417L324.054 86.5543L323.971 86.8022L323.926 86.5417L323.936 86.5384C324.029 86.5136 324.338 86.4061 324.975 86.2372L325.452 86.1105L325.363 86.5978L325.43 86.9008L325.552 87.0898L325.579 87.1211L325.456 87.2661L325.541 87.0968L325.579 87.1211L325.456 87.2661L325.541 87.0968L325.408 87.3633L325.278 87.0982C325.446 87.0327 325.514 87.0907 325.541 87.0968L325.408 87.3633L325.278 87.0982C325.794 86.8466 326.084 86.6572 326.254 86.5725L326.33 86.5403L326.498 86.522L326.503 86.523C327.067 86.6226 327.399 87.014 327.719 87.2244C327.878 87.3357 328.021 87.4082 328.172 87.4302C328.325 87.4517 328.5 87.4363 328.758 87.311C329.148 87.1239 329.698 86.6722 330.438 85.7925L330.531 85.6803L330.679 85.6817C331.041 85.6887 331.401 85.8655 331.75 86.1596C332.101 86.4561 332.435 86.8821 332.702 87.4302C332.98 88.0003 333.184 88.7013 333.241 89.5243C333.336 90.903 333.195 93.0612 332.695 94.6956L332.395 94.6039L332.58 94.3509C332.688 94.4389 332.991 94.4983 333.406 94.4328C333.819 94.372 334.33 94.2064 334.859 93.9488C335.584 93.5952 336.344 93.0682 336.962 92.421L337.188 92.6379L336.955 92.4275C338.178 91.0727 338.532 89.2026 339.042 87.2039C339.552 85.2117 340.243 83.0895 342.248 81.3746L342.452 81.6131L342.494 81.9232C339.5 82.3132 337.518 82.0565 336.194 81.536C334.867 81.0169 334.211 80.22 333.911 79.5976C333.661 79.0855 333.643 78.6988 333.641 78.667L333.631 78.3433L333.956 78.3424C334.203 78.3419 334.39 78.2947 334.531 78.226C334.767 78.109 334.893 77.9313 334.954 77.7289C335.014 77.5278 334.99 77.3052 334.919 77.163L334.871 77.0826L334.641 76.7786L334.982 76.6121C335.396 76.3998 335.503 76.0257 335.344 75.6815C335.272 75.5269 335.149 75.4016 334.996 75.3261L334.65 75.3116L334.513 75.031L334.722 75.2639L334.463 75.4968L334.168 75.7605L333.978 75.4131L333.796 75.0614C332.556 72.508 332.217 68.9039 332.494 65.2235C332.772 61.5421 333.676 57.7869 334.983 54.9502L335.523 53.7778L335.58 55.0685C335.807 60.1991 336.719 62.9965 337.406 64.4013C337.637 64.876 337.843 65.1917 337.987 65.3871L338.152 65.591L338.192 65.6313L338.197 65.6378L338.084 65.7631L338.193 65.6327L338.197 65.6378L338.084 65.7631L338.193 65.6327L338.014 65.845L338.182 65.6256L338.193 65.6327L338.014 65.845L338.182 65.6256L337.994 65.8702L338.133 65.5948L338.182 65.6256L337.994 65.8702L338.133 65.5948L338.138 65.5962L338.142 65.5976L337.998 65.8651L337.967 65.563L338.142 65.5976L337.998 65.8651L337.967 65.563L337.988 65.7636L337.943 65.5662L337.967 65.563L337.988 65.7636L337.943 65.5662C337.964 65.5644 338.315 65.44 338.752 65.259C339.294 65.0345 339.829 64.794 340.356 64.5379C340.642 64.399 340.931 64.2512 341.207 64.1011L341.357 64.3756L341.124 64.5847C340.986 64.435 340.283 63.6905 339.163 61.393L339.001 61.0525C337.529 57.9099 337.888 54.1383 336.445 51.216L336.388 51.0981L336.388 51.0995C335.731 49.8051 335.021 49.1289 334.385 48.8361C333.747 48.5448 333.164 48.6046 332.664 48.8455C331.94 49.2018 331.714 49.6526 331.634 49.8734L331.551 50.1053L331.308 50.0801C331.158 50.0645 331.007 50.0909 330.871 50.1563C330.591 50.2929 330.426 50.5702 330.417 50.8592L330.402 51.2501L330.025 51.1501C329.081 50.9005 328.116 50.7386 327.143 50.6665C326.79 50.6431 326.511 50.6366 326.322 50.6385C326.133 50.638 326.04 50.6459 326.039 50.6445L326.019 50.3326L326.326 50.3878C325.32 55.9584 323.988 58.1292 321.788 62.2614C320.218 65.2122 319.106 68.2346 318.388 70.5168C318.099 71.431 317.836 72.3533 317.599 73.2824C317.509 73.6304 317.425 73.9801 317.349 74.3314L317.253 74.7911L316.865 74.5245C316.632 74.3674 316.373 74.3379 316.155 74.4441C315.987 74.5278 315.868 74.6779 315.811 74.8771C315.757 75.0749 315.774 75.3134 315.883 75.5375C316.032 75.8452 316.315 76.0289 316.576 76.0523L317.683 76.1585L316.683 76.6462L316.584 76.7987L316.638 77.1373L316.866 77.3702L317.063 77.3804L317.456 77.1887L317.512 77.6222C317.62 78.4481 317.811 79.085 318.057 79.5887C318.678 80.8593 319.658 81.3442 320.754 81.9241L320.607 82.2019L320.743 81.9194C321.802 82.4325 322.287 82.9202 322.501 83.3556C322.638 83.6343 322.646 83.8859 322.635 84.0281C322.609 84.4106 322.39 85.5302 322.341 85.785L322.033 85.7261L322.344 85.6896L322.371 85.9211L322.061 85.9581L322.217 85.6863C322.446 85.8248 322.841 85.8547 323.174 85.8243C323.315 85.8119 323.455 85.792 323.595 85.7645L323.76 85.727L324.088 85.6349L324.15 85.9716C324.179 86.1269 324.223 86.501 324.261 86.8064L323.637 86.8812C323.608 86.6152 323.574 86.3498 323.534 86.0853L323.842 86.0291L323.926 86.3308C323.913 86.3336 323.618 86.4159 323.225 86.4486C322.831 86.4776 322.336 86.4729 321.905 86.2288L321.769 86.1498L321.722 85.763L321.717 85.7144L321.726 85.6653C321.774 85.4296 321.995 84.2614 322.01 83.9893C322.014 83.8995 322.016 83.7957 321.938 83.6306C321.816 83.378 321.461 82.9618 320.47 82.4825L320.468 82.482L320.461 82.4783C319.39 81.9129 318.209 81.3349 317.493 79.8632C317.212 79.2861 317.005 78.5818 316.89 77.7027L317.201 77.6629L317.338 77.9435C316.851 78.1689 316.311 77.8963 316.075 77.4118C315.959 77.1832 315.923 76.9225 315.972 76.671C316.019 76.4325 316.166 76.201 316.408 76.0832L316.546 76.3652L316.516 76.6762C316.019 76.6271 315.561 76.3063 315.32 75.812C314.973 75.0974 315.185 74.2285 315.881 73.8806C316.326 73.6636 316.834 73.7417 317.219 74.0092L317.041 74.2669L316.736 74.2018C316.741 74.1859 318.045 67.9662 321.235 61.9658C323.447 57.8038 324.71 55.7788 325.71 50.2756L325.754 50.0352L325.998 50.0188C326.023 50.0169 327.748 49.9052 330.183 50.5449L330.103 50.8475L329.791 50.8358C329.8 50.5752 329.88 50.322 330.022 50.1031C330.163 49.8843 330.362 49.7081 330.596 49.5933C330.836 49.4771 331.104 49.4302 331.369 49.4576L331.338 49.7696L331.042 49.6653C331.161 49.3215 331.511 48.7089 332.389 48.2824C333.028 47.9672 333.839 47.8905 334.647 48.2665C335.457 48.6425 336.25 49.4413 336.948 50.8166L337.009 50.9415C338.53 54.0925 338.171 57.8692 339.568 60.785L339.728 61.1175C340.835 63.3847 341.469 64.03 341.59 64.1661L341.855 64.4598L341.507 64.6501C341.221 64.8068 340.925 64.9583 340.631 65.1009C340.063 65.3774 339.486 65.6353 338.902 65.8744C338.668 65.9698 338.471 66.0451 338.327 66.098L338.151 66.1583L338.081 66.177L338.033 66.1854L337.844 66.1503L337.992 65.8744L337.851 66.1541L337.801 66.1218L337.682 66.0049C337.525 65.83 337.208 65.426 336.843 64.6763C336.11 63.1738 335.182 60.2898 334.955 55.0961L335.267 55.0825L335.551 55.2125C334.284 57.9595 333.391 61.6595 333.118 65.2702C332.842 68.8814 333.194 72.4056 334.359 74.7869L334.529 75.1133L334.253 75.2634L334.045 75.0296L334.304 74.7967L334.336 74.7672L334.375 74.7485C334.971 74.4735 335.622 74.8252 335.907 75.4074C336.063 75.7268 336.083 76.0869 335.967 76.4073C335.852 76.729 335.604 77.0077 335.257 77.1752L335.12 76.8946L335.37 76.7052L335.483 76.889C335.628 77.1911 335.657 77.5521 335.556 77.9042C335.501 78.0964 335.405 78.2746 335.276 78.4271C335.147 78.5796 334.986 78.703 334.806 78.789C334.568 78.9055 334.284 78.9686 333.955 78.9695V78.6562L334.268 78.644L334.268 78.6487C334.271 78.6903 334.299 78.9644 334.474 79.3231C334.719 79.8183 335.233 80.4824 336.423 80.9533C337.611 81.4219 339.488 81.6837 342.412 81.3021L343.457 81.1656L342.657 81.8507C340.799 83.4416 340.155 85.388 339.649 87.3596C339.14 89.3223 338.793 91.3108 337.421 92.846L337.417 92.8517L337.415 92.8545C336.737 93.5639 335.922 94.1255 335.134 94.5118C334.557 94.791 333.996 94.9795 333.498 95.0524C333.003 95.1226 332.558 95.0996 332.212 94.856L332.031 94.7251L332.097 94.5113C332.564 92.9952 332.709 90.8595 332.616 89.5683C332.563 88.8238 332.381 88.2 332.139 87.7047C331.908 87.2282 331.618 86.8695 331.344 86.6385C331.072 86.4028 330.809 86.3051 330.675 86.3074L330.677 85.9945L330.917 86.1956C330.145 87.1085 329.555 87.6173 329.032 87.874C328.69 88.0424 328.366 88.0943 328.078 88.0498C327.645 87.982 327.343 87.7318 327.086 87.5317C326.828 87.3255 326.612 87.1716 326.406 87.1407L326.454 86.833L326.412 87.1431L326.447 86.8859L326.53 87.1333L326.412 87.1426L326.447 86.8859L326.53 87.1333L326.528 87.1361C326.435 87.1796 326.087 87.4007 325.554 87.6608C325.379 87.7304 325.302 87.6701 325.262 87.6575L325.043 87.4578L324.867 87.1753C324.778 86.9892 324.699 86.7535 324.747 86.4832L325.054 86.5412L325.135 86.8442C324.845 86.9202 324.556 87.0027 324.27 87.0916L324.081 87.1478L323.978 87.1651L323.855 87.1482L323.667 86.9845L323.637 86.8573L324.262 86.8298ZM331.88 51.3399C332.05 51.1024 332.09 50.7951 331.958 50.5253L332.239 50.3883L331.982 50.5669L331.81 50.3186L331.701 50.1624L331.79 49.994C331.93 49.7208 332.155 49.4999 332.43 49.3636C332.861 49.1551 333.35 49.2028 333.771 49.4118C334.193 49.6222 334.567 49.9945 334.809 50.4827V50.4846L334.815 50.4967L334.689 50.5533L334.813 50.4925L334.815 50.4972L334.689 50.5533L334.813 50.4925C334.987 50.8498 335.267 51.6275 335.437 53.0468L335.515 53.7128L334.954 53.3457C334.027 52.7408 333.042 52.228 332.015 51.8146L332.249 51.2333C333.314 51.6615 334.335 52.1932 335.296 52.821L335.125 53.0847L334.814 53.1212C334.652 51.7566 334.384 51.043 334.25 50.7675L334.244 50.7549L334.372 50.6978L334.246 50.7591L334.244 50.7549L334.372 50.6978L334.246 50.7591L334.247 50.7605C334.064 50.3892 333.781 50.1156 333.493 49.9739C333.202 49.8299 332.925 49.8196 332.704 49.9272C332.549 50.005 332.423 50.1306 332.345 50.2854L332.067 50.1404L332.324 49.9613L332.497 50.2096L332.511 50.2283L332.521 50.2508C332.633 50.483 332.68 50.7413 332.656 50.998C332.632 51.2547 332.539 51.5 332.386 51.7075L331.879 51.3395L331.88 51.3399Z" fill="white" fill-opacity="0.23"/>
<path fill-rule="evenodd" clip-rule="evenodd" d="M181.581 256.261C186.728 257.974 192.667 258.943 199.038 258.942C209.236 258.943 218.319 256.462 224.829 252.423C231.342 248.38 235.257 242.815 235.256 236.615C235.257 230.418 231.342 224.852 224.829 220.809C218.319 216.772 209.236 214.291 199.038 214.291C188.841 214.291 179.758 216.772 173.248 220.808C166.736 224.852 162.82 230.418 162.821 236.615C162.823 240.815 164.609 244.708 167.788 248.049C167.849 248.119 167.881 248.21 167.877 248.302C167.873 248.395 167.833 248.483 167.766 248.547C167.699 248.611 167.609 248.646 167.517 248.646C167.424 248.646 167.335 248.609 167.268 248.544C163.991 245.101 162.103 241.024 162.104 236.615C162.106 230.095 166.224 224.319 172.871 220.2C179.522 216.076 188.726 213.575 199.038 213.575C209.351 213.575 218.555 216.076 225.206 220.2C231.854 224.32 235.971 230.095 235.973 236.615C235.971 243.138 231.853 248.914 225.206 253.033C218.555 257.157 209.351 259.659 199.038 259.659C192.593 259.659 186.581 258.679 181.355 256.942C181.264 256.912 181.19 256.847 181.147 256.762C181.104 256.677 181.097 256.579 181.127 256.488C181.157 256.398 181.222 256.323 181.307 256.281C181.392 256.238 181.491 256.231 181.581 256.261ZM170.411 250.437C172.264 251.904 174.417 253.224 176.819 254.36C176.999 254.444 177.075 254.658 176.99 254.837C176.97 254.88 176.941 254.918 176.907 254.949C176.872 254.981 176.831 255.006 176.787 255.022C176.743 255.037 176.696 255.044 176.649 255.042C176.602 255.04 176.556 255.028 176.513 255.008C174.067 253.85 171.867 252.504 169.966 250.999C169.929 250.97 169.898 250.933 169.875 250.892C169.852 250.851 169.837 250.806 169.832 250.759C169.827 250.712 169.831 250.665 169.844 250.62C169.857 250.574 169.879 250.532 169.908 250.495C169.937 250.458 169.973 250.427 170.014 250.404C170.055 250.381 170.1 250.366 170.147 250.361C170.194 250.356 170.241 250.359 170.287 250.372C170.332 250.385 170.374 250.407 170.411 250.437Z" fill="white" fill-opacity="0.23"/>
<path fill-rule="evenodd" clip-rule="evenodd" d="M199.039 213.887V213.528C209.789 213.53 219.381 216.124 226.311 220.403C233.236 224.677 237.526 230.669 237.528 237.432V244.209C237.528 252.149 233.263 259.216 226.334 264.272C219.403 269.334 209.797 272.408 199.039 272.408C188.281 272.408 178.676 269.334 171.745 264.272C164.816 259.216 160.549 252.149 160.551 244.209V237.432C160.554 230.669 164.843 224.677 171.769 220.403C178.699 216.124 188.291 213.53 199.04 213.528V214.245C188.408 214.243 178.933 216.821 172.145 221.014C165.352 225.212 161.268 230.992 161.269 237.433V244.209C161.269 251.881 165.378 258.734 172.169 263.694C178.956 268.65 188.418 271.69 199.04 271.69C209.662 271.69 219.124 268.65 225.911 263.694C232.701 258.734 236.809 251.881 236.811 244.209V237.432C236.812 230.992 232.728 225.212 225.935 221.014C219.147 216.821 209.672 214.243 199.04 214.245L199.04 213.887H199.039ZM166.022 236.616H166.381C166.376 241.717 169.958 246.402 175.871 249.831C181.779 253.253 189.979 255.385 199.039 255.383C208.1 255.385 216.3 253.253 222.207 249.831C228.12 246.403 231.703 241.717 231.698 236.616C231.703 231.515 228.121 226.83 222.207 223.403C216.3 219.981 208.1 217.849 199.039 217.85C189.979 217.849 181.779 219.981 175.871 223.403C169.959 226.83 166.376 231.515 166.381 236.616H165.663C165.666 231.155 169.476 226.277 175.514 222.783C181.556 219.285 189.865 217.135 199.039 217.133C208.214 217.135 216.522 219.285 222.565 222.783C228.603 226.277 232.41 231.155 232.416 236.616C232.41 242.078 228.603 246.956 222.565 250.451C216.522 253.949 208.214 256.099 199.039 256.101C189.865 256.099 181.556 253.949 175.514 250.451C169.476 246.956 165.666 242.078 165.663 236.616H166.022ZM171.319 246.944C177.335 241.729 187.502 238.332 199.039 238.33C210.576 238.332 220.743 241.729 226.756 246.944L226.288 247.486C220.463 242.423 210.434 239.044 199.039 239.046C187.642 239.044 177.614 242.423 171.789 247.486L171.32 246.944H171.319ZM233.798 256.441C233.314 263.283 229.308 269.318 223.092 273.624C216.877 277.931 208.446 280.528 199.039 280.528C189.633 280.528 181.2 277.931 174.984 273.624C168.771 269.318 164.765 263.283 164.281 256.441L164.993 256.389C165.461 262.976 169.315 268.818 175.392 273.034C181.47 277.246 189.762 279.812 199.039 279.812C208.316 279.812 216.609 277.246 222.685 273.034C228.762 268.818 232.617 262.976 233.083 256.39L233.798 256.441ZM213.547 262.536H213.906C213.905 263.087 213.716 263.621 213.371 264.051C213.027 264.48 212.546 264.78 212.008 264.9C207.989 265.814 203.625 266.309 199.039 266.309C194.454 266.309 190.089 265.814 186.071 264.9C185.533 264.78 185.052 264.48 184.707 264.051C184.363 263.621 184.174 263.087 184.173 262.536V260.496L184.623 260.613C189.018 261.761 193.884 262.4 199.039 262.4C204.195 262.4 209.06 261.761 213.456 260.613L213.906 260.496V262.536H213.188V260.959H213.547L213.638 261.306C209.178 262.471 204.255 263.117 199.039 263.117C193.824 263.117 188.899 262.471 184.441 261.306L184.532 260.959H184.891V262.536C184.891 263.335 185.447 264.022 186.231 264.202C190.195 265.103 194.505 265.591 199.04 265.591C203.574 265.591 207.884 265.103 211.849 264.202C212.228 264.118 212.567 263.906 212.81 263.604C213.054 263.301 213.187 262.924 213.188 262.536H213.547V262.536ZM213.906 261.126V265.868C213.905 266.419 213.717 266.954 213.372 267.383C213.027 267.813 212.546 268.113 212.008 268.232C207.989 269.146 203.625 269.642 199.039 269.642C194.454 269.642 190.089 269.146 186.071 268.232C185.533 268.113 185.052 267.813 184.707 267.383C184.362 266.954 184.174 266.419 184.173 265.868V261.036H184.891V265.868C184.891 266.668 185.447 267.356 186.231 267.535C190.195 268.435 194.505 268.926 199.04 268.926C203.574 268.926 207.884 268.435 211.849 267.535C212.228 267.451 212.567 267.24 212.811 266.937C213.054 266.634 213.187 266.257 213.188 265.868V261.126H213.906ZM199.039 213.933V214.292C193.886 214.292 189.018 214.926 184.623 216.074L184.173 216.191V215.421C184.174 214.87 184.362 214.336 184.707 213.906C185.052 213.476 185.533 213.176 186.071 213.056C190.089 212.144 194.454 211.648 199.039 211.648C203.625 211.648 207.989 212.144 212.008 213.056C212.546 213.177 213.026 213.476 213.371 213.906C213.716 214.336 213.905 214.87 213.906 215.421V216.191L213.456 216.074C209.061 214.926 204.192 214.292 199.039 214.292V213.574C204.251 213.574 209.18 214.215 213.638 215.38L213.547 215.727H213.188V215.421C213.188 214.623 212.632 213.934 211.848 213.754C207.884 212.856 203.574 212.364 199.039 212.364C194.505 212.364 190.195 212.856 186.23 213.754C185.851 213.839 185.512 214.05 185.269 214.353C185.025 214.656 184.892 215.032 184.891 215.421V215.727H184.532L184.441 215.38C188.899 214.215 193.827 213.574 199.039 213.574V213.933ZM242.697 243.377C243.272 243.108 243.719 242.61 244.033 241.892C244.343 241.177 244.51 240.249 244.509 239.187C244.511 237.288 243.982 234.969 242.905 232.648C241.924 230.54 240.654 228.777 239.342 227.556C238.03 226.329 236.68 225.663 235.588 225.669C235.223 225.669 234.885 225.74 234.571 225.885L234.269 225.234C234.683 225.045 235.133 224.948 235.588 224.951C236.965 224.958 238.438 225.736 239.83 227.031C241.223 228.329 242.539 230.162 243.554 232.346C244.67 234.749 245.227 237.158 245.227 239.187C245.227 240.323 245.053 241.341 244.689 242.177C244.329 243.012 243.765 243.672 243 244.026L242.697 243.377ZM305.097 185.407L304.92 185.094C307.482 183.631 310.381 182.861 313.331 182.861C319.734 182.86 325.914 186.479 328.822 192.739C329.871 194.986 330.415 197.436 330.416 199.916C330.418 206.822 326.191 213.377 319.246 215.937L236.709 246.334L236.749 245.779C236.786 245.256 236.811 244.734 236.811 244.209V237.432C236.809 233.533 235.31 229.889 232.624 226.676L232.348 226.349L304.92 185.094L305.097 185.407L305.274 185.719L233.077 226.76L232.9 226.446L233.175 226.218C235.947 229.529 237.528 233.345 237.528 237.432V244.209C237.528 244.755 237.504 245.294 237.464 245.83L237.107 245.805L236.983 245.468L318.998 215.263C325.651 212.813 329.698 206.532 329.698 199.915C329.698 197.616 329.211 195.277 328.171 193.04C325.387 187.043 319.467 183.578 313.331 183.578C310.505 183.579 307.728 184.317 305.274 185.719L305.097 185.407Z" fill="white" fill-opacity="0.23"/>
<path fill-rule="evenodd" clip-rule="evenodd" d="M81.5263 35.6809V35.4433C89.9972 35.4433 97.7036 36.5343 103.468 38.3254C106.35 39.2219 108.748 40.2919 110.519 41.4984C112.285 42.7031 113.44 44.0499 113.782 45.5221L113.551 45.5749L113.376 45.414C114.577 44.1041 115.218 42.7251 115.218 41.2997C115.218 39.6021 114.316 37.9625 112.63 36.4408C107.574 31.8686 95.5412 28.5937 81.5263 28.6002C72.1817 28.6002 63.7224 30.0462 57.6196 32.3746C54.5687 33.5367 52.1084 34.9209 50.4234 36.4408C48.7371 37.9625 47.8355 39.6021 47.8355 41.2997C47.8355 42.7255 48.4762 44.1041 49.6775 45.414L49.5022 45.5749L49.2716 45.5221C49.613 44.0499 50.7672 42.7031 52.5349 41.4984C57.8413 37.89 68.8161 35.4489 81.5263 35.4433V35.9184C73.095 35.9184 65.4279 37.0066 59.7259 38.7795C56.8732 39.6643 54.5144 40.7226 52.8019 41.8898C51.0856 43.059 50.0301 44.3324 49.7332 45.6282L49.6322 46.0678L49.3273 45.7358C48.0716 44.3688 47.3608 42.8733 47.3608 41.2997C47.3608 39.4258 48.3583 37.6614 50.1059 36.0882C55.351 31.3734 67.4332 28.1316 81.5263 28.1255C90.9213 28.1255 99.426 29.5753 105.603 31.9308C108.691 33.1088 111.198 34.5122 112.948 36.0882C114.695 37.6614 115.693 39.4258 115.693 41.2997C115.693 42.8733 114.982 44.3688 113.726 45.7358L113.421 46.0678L113.32 45.6282C113.023 44.3328 111.966 43.0585 110.252 41.8898C105.107 38.3778 94.1691 35.9147 81.5263 35.9184V35.6809ZM73.3882 81.8471L73.174 81.7615H73.4051L73.3882 81.8471L73.174 81.7615L73.3335 81.5941L73.4051 81.7615H73.174L73.3335 81.5941L73.196 81.7382L73.2522 81.5445L73.3335 81.5941L73.196 81.7382L73.2522 81.5445L73.2596 81.5459C73.3326 81.56 73.579 81.5899 74.0677 81.6862L74.4362 81.7587L74.2132 82.0608L74.1585 82.289L74.1781 82.4593L74.186 82.4892L74.0551 82.5486L74.1673 82.4593L74.186 82.4892L74.0551 82.5486L74.1673 82.4593L73.9896 82.5982V82.3751C74.1253 82.3854 74.1524 82.4462 74.1673 82.4593L73.9896 82.5982V82.3751C74.4245 82.3737 74.6841 82.341 74.8291 82.34C74.8735 82.3475 74.8875 82.3204 75.0119 82.3877L75.0161 82.3891H75.0147C75.3664 82.6445 75.4623 83.0223 75.61 83.2711C75.7672 83.5241 75.8644 83.663 76.2909 83.6756C76.6183 83.677 77.1435 83.5526 77.9399 83.2L78.0423 83.1542L78.1419 83.2038C78.6156 83.4591 78.9294 84.1456 78.9397 85.0687C78.9397 85.549 78.8438 86.0948 78.6105 86.6746C78.2158 87.6464 77.4025 89.0681 76.5191 90.0174L76.3457 89.8551L76.5561 89.7438C76.5996 89.8411 76.7866 89.9823 77.0901 90.0759C77.3922 90.1717 77.7944 90.2274 78.2406 90.2274C78.8532 90.2274 79.5453 90.1221 80.1813 89.885L80.2641 90.1081L80.1748 89.8874C81.4585 89.3716 82.3213 88.2141 83.3342 87.0207C84.3443 85.8329 85.5214 84.6161 87.4579 84.1143L87.5173 84.3434L87.4425 84.5698C85.2721 83.8393 84.0076 83.0064 83.2771 82.2114C82.5457 81.4178 82.3638 80.656 82.3652 80.1322C82.3666 79.7001 82.4835 79.4308 82.4924 79.4097L82.5925 79.1853L82.8128 79.2919C82.9811 79.3747 83.1256 79.4041 83.2449 79.4041C83.4446 79.4032 83.5886 79.3242 83.6976 79.2063C83.8051 79.0894 83.8636 78.9299 83.8622 78.8088L83.8542 78.7363L83.8 78.4539H84.088C84.4406 78.4473 84.638 78.228 84.6445 77.9399C84.6445 77.7949 84.595 77.6663 84.5248 77.5822L84.2943 77.4578V77.2202L84.3579 77.4484L84.1021 77.52L83.8154 77.6004L83.8014 77.302L83.7948 77.0027C83.8116 72.7088 87.63 66.6972 91.2879 63.6916L92.047 63.0715L91.6565 63.9703C90.1053 67.5413 89.7975 69.7514 89.7975 70.9373C89.7975 71.3381 89.8326 71.622 89.8663 71.8025L89.9117 71.997L89.9257 72.0382L89.9276 72.0424L89.8041 72.0929L89.9248 72.0382L89.9276 72.0424L89.8041 72.0929L89.9248 72.0382L89.7157 72.1331L89.8976 71.9919L89.9248 72.0387L89.7157 72.1331L89.8976 71.9919L89.9023 71.9994L89.907 72.0045L89.7157 72.1331L89.7952 71.9166L89.907 72.0045L89.7157 72.1331L89.7952 71.9166L89.7419 72.0616L89.777 71.9115L89.7952 71.9161L89.7419 72.0616L89.777 71.9115C89.7924 71.9161 90.0716 71.9475 90.4293 71.9694C90.795 71.9928 91.2697 72.0125 91.7612 72.0125C92.0044 72.0125 92.2504 72.0073 92.4893 71.9956L92.5006 72.2327L92.2724 72.2991C92.2284 72.1495 91.9964 71.4092 91.9974 69.4727L91.9988 69.1874C92.0404 66.5545 93.5373 64.1041 93.5266 61.6344L93.5257 61.5334C93.5088 60.4335 93.2507 59.7367 92.913 59.3256C92.5763 58.9155 92.1582 58.764 91.7369 58.7612C91.1243 58.764 90.8222 58.995 90.6926 59.118L90.5589 59.248L90.4022 59.1507C90.3057 59.0896 90.1938 59.0571 90.0795 59.0572C89.8443 59.0572 89.6409 59.191 89.5371 59.3855L89.3968 59.6474L89.1723 59.4542C88.6124 58.9701 88.0089 58.5388 87.3695 58.1659C87.1901 58.0618 87.0071 57.964 86.821 57.8727C86.691 57.8105 86.6264 57.7847 86.6264 57.7838L86.7158 57.564L86.9075 57.7043C84.3681 61.1663 82.7389 62.204 79.867 64.2869C77.815 65.7773 76.0524 67.4674 74.8057 68.7838C74.3049 69.3107 73.8188 69.8513 73.348 70.4052C73.0094 70.805 72.8289 71.0369 72.8289 71.0369L72.6101 71.3185L72.4347 71.0084C72.3285 70.8256 72.1611 70.7194 71.9783 70.7194C71.6977 70.7204 71.4321 70.9893 71.4297 71.3732C71.4297 71.6337 71.5593 71.8516 71.729 71.954L72.4506 72.3936H71.606L71.4882 72.4651L71.4115 72.7139L71.4891 72.9487L71.6215 73.0217H71.9521L71.8473 73.334C71.6448 73.9345 71.5644 74.4316 71.5644 74.8572C71.5658 75.9295 72.0718 76.5861 72.6255 77.3437L72.4338 77.484L72.6204 77.3371C73.1703 78.04 73.3387 78.5329 73.3405 78.9014C73.3415 79.1362 73.2638 79.3097 73.2105 79.4018L73.2077 79.4069L73.2091 79.4046C73.0628 79.6548 72.5423 80.3446 72.4235 80.5045L72.2336 80.3605L72.4581 80.4372L72.401 80.6046L72.1766 80.5279L72.3739 80.3955C72.4843 80.5653 72.7424 80.7173 72.9781 80.8071C73.0964 80.8538 73.2068 80.8856 73.2858 80.9067L73.4088 80.9347L73.666 80.9829L73.5945 81.2336C73.5617 81.3449 73.4701 81.6161 73.392 81.8378L72.943 81.6797C73.0197 81.4655 73.1161 81.184 73.1381 81.1035L73.3663 81.1686L73.3232 81.4024C73.3139 81.3996 73.0847 81.358 72.806 81.249C72.5296 81.1386 72.1934 80.9703 71.9797 80.6598L71.9147 80.563L72.0096 80.2838L72.0208 80.2477L72.0442 80.2164C72.156 80.0724 72.6943 79.3513 72.7971 79.1689L73.0029 79.2863L72.7953 79.1712C72.828 79.1104 72.864 79.0403 72.8654 78.9014C72.8668 78.6886 72.7616 78.2864 72.2467 77.6303L72.243 77.6247L72.2416 77.6238C71.6991 76.883 71.0883 76.0969 71.0898 74.8572C71.0898 74.3708 71.1819 73.8218 71.397 73.1839L71.6215 73.2588V73.4963C71.2146 73.4884 70.9378 73.1227 70.9368 72.7139C70.9368 72.5105 70.999 72.3211 71.1131 72.1747C71.2244 72.0279 71.4012 71.9189 71.606 71.9189V72.1565L71.4826 72.3585C71.1599 72.1602 70.956 71.7894 70.9551 71.3732C70.956 70.7713 71.3895 70.2499 71.9783 70.2443C72.3533 70.2443 72.6737 70.465 72.8472 70.7751L72.6414 70.892L72.4543 70.7465C72.4623 70.7363 75.4192 66.9329 79.5869 63.903C82.4793 61.8032 84.0127 60.8418 86.5249 57.4242L86.6339 57.2745L86.8051 57.3447C86.8219 57.3512 88.035 57.8497 89.481 59.0937L89.3266 59.2737L89.1166 59.162C89.2094 58.9871 89.348 58.8408 89.5175 58.7387C89.687 58.6365 89.8812 58.5824 90.0791 58.5821C90.2905 58.5821 90.4878 58.6447 90.6524 58.7458L90.5266 58.9482L90.3606 58.778C90.5551 58.5849 90.9975 58.2856 91.7369 58.287C92.0335 58.285 92.3267 58.3504 92.5944 58.4784C92.862 58.6065 93.0969 58.7937 93.2815 59.0259C93.7085 59.5496 93.9821 60.3582 94.0003 61.5269L94.0017 61.6344C93.99 64.286 92.4903 66.7397 92.4734 69.1925L92.472 69.4731C92.4734 71.3835 92.6918 72.0373 92.7292 72.1668L92.8134 72.4563L92.5123 72.4703C92.2621 72.4817 92.0117 72.4874 91.7612 72.4871C91.2243 72.4871 90.7109 72.4637 90.3283 72.439C90.1366 72.4263 89.9776 72.4118 89.8626 72.4002L89.7223 72.3833L89.6694 72.373L89.6329 72.3627L89.5123 72.2692L89.7096 72.1369L89.5212 72.2818L89.4931 72.2327C89.459 72.1551 89.3257 71.7726 89.3229 70.9373C89.3229 69.6686 89.6512 67.3963 91.2206 63.7809L91.4385 63.8759L91.5891 64.0601C88.0285 66.9549 84.254 72.9735 84.2695 77.0023L84.276 77.281L84.0385 77.2917L83.9749 77.0631L84.2307 76.992L84.2615 76.9826H84.2943C84.79 76.9934 85.1173 77.447 85.1192 77.9399C85.1192 78.2097 85.0126 78.4627 84.826 78.6418C84.6403 78.8224 84.3798 78.9285 84.088 78.9285V78.691L84.3214 78.6456L84.3368 78.8093C84.3316 79.075 84.2291 79.3295 84.0488 79.5248C83.865 79.7305 83.582 79.8802 83.2444 79.8792C83.0433 79.8792 82.8282 79.8278 82.6051 79.7198L82.7089 79.5056L82.9255 79.6015L82.9166 79.6277C82.8932 79.6927 82.8399 79.8741 82.8399 80.1322C82.8427 80.5513 82.9722 81.1751 83.6274 81.8911C84.2812 82.6056 85.4732 83.4072 87.5926 84.1194L88.3502 84.3719L87.5772 84.573C85.7833 85.0416 84.6974 86.1537 83.6961 87.3284C82.6963 88.4985 81.7984 89.7382 80.3534 90.3284L80.3497 90.3298L80.3468 90.3312C79.6716 90.5762 78.9589 90.7017 78.2406 90.702C77.7556 90.702 77.3104 90.6426 76.9475 90.5285C76.587 90.4102 76.2909 90.2479 76.1352 89.9669L76.0562 89.8163L76.1717 89.6928C76.9952 88.8137 77.8038 87.4074 78.1695 86.4969C78.3818 85.9718 78.465 85.4868 78.465 85.0687C78.4744 84.2635 78.1302 83.7098 77.9291 83.6293L78.0357 83.4165L78.1316 83.6331C77.3039 83.9988 76.7319 84.1493 76.2909 84.1507C75.7022 84.1634 75.3584 83.8225 75.1952 83.5035C75.0236 83.1804 74.9212 82.8937 74.7425 82.7787L74.8782 82.5837L74.7449 82.7796L74.8567 82.6173L74.8305 82.8147L74.7449 82.7796L74.8567 82.6173L74.8305 82.8147H74.8291C74.75 82.8133 74.44 82.8483 73.9901 82.8498C73.8498 82.839 73.8161 82.7731 73.7927 82.7511L73.71 82.542L73.6838 82.2895C73.6852 82.1338 73.71 81.9467 73.8316 81.7784L74.0224 81.9196L73.977 82.1534C73.6412 82.087 73.4322 82.0543 73.3036 82.0337L73.1572 82.0103L73.0824 81.9869L73.0043 81.9364L72.9304 81.7615L72.9472 81.6703L73.3882 81.8471ZM90.3732 60.1997C90.5696 60.0935 90.6978 59.899 90.6978 59.6708H90.9353L90.7006 59.7068L90.6655 59.48L90.6435 59.3373L90.7604 59.2517C90.9471 59.1129 91.1731 59.037 91.4058 59.0352C91.7678 59.0352 92.0872 59.2307 92.3037 59.5136C92.5216 59.798 92.6525 60.1754 92.6539 60.5892V60.5981C92.6539 60.9016 92.5866 61.5231 92.2298 62.5435L92.0624 63.0238L91.8014 62.5879C91.3718 61.867 90.8717 61.1905 90.3087 60.5682L90.6613 60.2492C91.2444 60.8954 91.7629 61.5971 92.2092 62.3443L92.0053 62.4659L91.7808 62.3883C92.1246 61.4062 92.1793 60.8315 92.1793 60.5981V60.5878L92.2672 60.5902H92.1793V60.5878L92.2672 60.5902H92.1793C92.1793 60.2778 92.0764 59.9962 91.9277 59.8031C91.7771 59.6095 91.5914 59.5099 91.4062 59.5099C91.2753 59.5099 91.1533 59.5539 91.0401 59.6357L90.8998 59.444L91.135 59.4075L91.1701 59.6343L91.1724 59.6525V59.6708C91.1724 60.0846 90.9353 60.4386 90.5968 60.6177L90.3737 60.1997H90.3732Z" fill="white" fill-opacity="0.23"/>
<path fill-rule="evenodd" clip-rule="evenodd" d="M104.389 80.2861C105.151 79.1226 105.894 77.9679 106.617 76.6894C111.7 67.6848 115.78 59.4795 117.029 48.3022L117.044 48.1689L117.166 48.1128C121.531 46.1141 126.631 44.5213 130.497 44.5189C132.19 44.5189 133.656 44.8238 134.722 45.5711C135.79 46.3166 136.417 47.5212 136.412 49.186C136.404 52.7477 133.812 57.3615 128.719 62.6328C123.623 67.9027 116.005 73.819 105.885 79.9073C95.9068 85.9119 89.1876 91.0438 84.9722 95.0895C82.8645 97.112 81.3821 98.8629 80.4323 100.308C79.4816 101.753 79.0715 102.897 79.0743 103.667C79.0771 104.155 79.2239 104.481 79.4858 104.706C79.7477 104.932 80.1573 105.064 80.7166 105.064C81.1951 105.064 81.4934 104.988 81.7062 104.857C82.0747 104.639 82.2781 104.163 82.6116 103.368C83.1119 102.183 83.9214 100.395 86.3046 98.06C88.6882 95.7217 92.6431 92.8209 99.4595 89.3411C110.956 83.4731 121.817 77.3324 129.789 70.6497C137.766 63.9633 142.829 56.7559 142.826 48.7549C142.822 44.611 141.459 42.0507 139.389 40.4901C137.315 38.931 134.488 38.3745 131.55 38.3759C128.224 38.3745 124.767 39.0853 122.147 39.7985C120.837 40.1539 119.735 40.5107 118.962 40.7768C118.189 41.0438 117.75 41.2201 117.748 41.2201L117.423 41.3501V40.9994C117.423 39.1396 116.458 37.3471 114.66 35.6883C109.269 30.7008 96.4544 27.135 81.5257 27.1416C71.5732 27.1416 62.5626 28.7175 56.0613 31.2536C52.8111 32.5219 50.1881 34.0305 48.3919 35.6883C46.5942 37.3471 45.629 39.1396 45.629 40.9999C45.6313 56.1433 50.3088 65.8339 56.435 76.6894C58.343 80.0681 60.4104 82.578 62.5223 86.7106C64.8582 91.288 64.5641 94.2996 65.7561 97.4698C66.5731 99.6645 68.6705 101.571 71.4956 102.922C74.3202 104.272 77.8616 105.064 81.5257 105.064V105.539C77.7929 105.539 74.1897 104.735 71.2917 103.35C68.3955 101.964 66.1957 99.9965 65.3109 97.6358C64.081 94.3281 64.3887 91.4021 62.0996 86.9257C60.0125 82.8399 57.9562 80.3459 56.0225 76.9227C49.8869 66.0593 45.1515 56.2457 45.1543 40.9999C45.1543 38.9675 46.2112 37.0515 48.0701 35.3394C53.6501 30.2065 66.5188 26.6735 81.5257 26.6669C91.5305 26.6683 100.587 28.2466 107.163 30.8112C110.452 32.0954 113.122 33.6232 114.982 35.3394C116.841 37.051 117.897 38.9675 117.897 40.9999H117.66L117.572 40.7791C117.586 40.7754 124.765 37.9036 131.55 37.9012C134.544 37.9012 137.473 38.4601 139.674 40.1113C141.877 41.7621 143.305 44.511 143.301 48.7549C143.298 56.9719 138.115 64.2902 130.094 71.0131C122.069 77.7383 111.183 83.8879 99.6746 89.7639C89.3303 95.0455 85.6639 98.9579 84.0772 101.521C83.2808 102.806 83.0063 103.753 82.6532 104.438C82.4769 104.78 82.2692 105.068 81.954 105.261C81.6389 105.455 81.2418 105.539 80.7166 105.539C80.0863 105.539 79.5569 105.391 79.1767 105.067C78.7955 104.744 78.5968 104.252 78.5996 103.667C78.6034 102.736 79.0602 101.537 80.0353 100.048C82.967 95.5903 90.6378 88.5302 105.641 79.4999C115.734 73.4285 123.322 67.5305 128.378 62.3031C133.438 57.0785 135.945 52.5129 135.937 49.1856C135.932 47.633 135.386 46.6238 134.449 45.9588C133.508 45.2947 132.135 44.9922 130.497 44.9936C126.757 44.9908 121.684 46.5616 117.363 48.5449L117.265 48.3284L117.5 48.3541C116.244 59.6244 112.119 67.9107 107.029 76.9227C106.299 78.2172 105.549 79.3807 104.786 80.5456L104.389 80.2861Z" fill="white" fill-opacity="0.23"/>
<path fill-rule="evenodd" clip-rule="evenodd" d="M81.5262 105.065C85.1903 105.065 88.7313 104.272 91.5564 102.921C94.3828 101.571 96.4802 99.6641 97.2991 97.4694C98.2273 94.9908 98.2531 92.6793 99.3287 89.5166L99.7776 89.6699C98.723 92.7569 98.702 95.0577 97.7424 97.6354C96.8576 99.9961 94.6564 101.963 91.7612 103.35C88.8622 104.736 85.259 105.54 81.5262 105.54V105.065ZM115.964 73.2111C113.95 72.5205 111.911 71.9048 109.851 71.3653L109.971 70.9065C112.043 71.4483 114.093 72.0674 116.118 72.7626L115.964 73.2115V73.2111Z" fill="white" fill-opacity="0.23"/>
<path fill-rule="evenodd" clip-rule="evenodd" d="M53.2012 71.3657C43.7968 73.8363 35.9043 77.5008 30.3786 81.9266C24.851 86.3548 21.7 91.5274 21.7 97.0321C21.692 105.004 28.3382 113.147 39.1713 119.284C49.9997 125.419 64.9799 129.543 81.5267 129.543C98.0721 129.543 113.053 125.419 123.881 119.284C134.714 113.147 141.36 105.004 141.352 97.0321C141.36 88.881 134.418 81.4361 123.138 76.1114L123.342 75.6821C134.689 81.0418 141.818 88.5859 141.827 97.0321C141.818 105.284 135.019 113.514 124.114 119.696C113.203 125.879 98.1516 130.017 81.5267 130.017C64.9008 130.017 49.8496 125.879 38.9379 119.696C28.0338 113.514 21.2342 105.284 21.2253 97.0321C21.2267 91.3357 24.4862 86.0359 30.0816 81.5553C35.6812 77.0729 43.627 73.3902 53.0806 70.9065L53.2012 71.3657ZM114.971 73.9177C113.121 73.3156 111.251 72.7757 109.365 72.2987L109.482 71.8395C111.378 72.3191 113.257 72.8616 115.117 73.4659L114.971 73.9177Z" fill="white" fill-opacity="0.23"/>
<path fill-rule="evenodd" clip-rule="evenodd" d="M53.6881 72.3C45.1428 74.4633 37.8919 77.5938 32.6973 81.3668C27.4998 85.1426 24.3736 89.5474 24.0013 94.2608C23.9766 94.5807 23.9641 94.9014 23.9639 95.2223C23.9536 102.288 30.2145 108.845 40.586 113.625C50.9486 118.404 65.3709 121.392 81.5258 121.392C97.6826 121.392 112.103 118.404 122.466 113.625C132.839 108.844 139.1 102.287 139.09 95.2208C139.09 94.9028 139.076 94.5825 139.052 94.2608C138.52 87.4471 132.196 81.263 122.24 76.7282L122.438 76.2961C132.455 80.865 138.951 87.1221 139.525 94.2234C139.551 94.5577 139.564 94.8902 139.564 95.2208C139.554 102.596 133.101 109.242 122.666 114.056C112.22 118.871 97.741 121.866 81.5258 121.867C65.311 121.866 50.8331 118.872 40.3877 114.056C29.9526 109.244 23.4995 102.598 23.4892 95.2223C23.4892 94.8902 23.5019 94.5582 23.5295 94.2234C23.92 89.3149 27.1584 84.8026 32.418 80.9828C37.6819 77.1603 44.9819 74.0149 53.5712 71.8394L53.6881 72.3ZM115.456 41.3005H115.218C115.218 39.6025 114.317 37.9629 112.63 36.4403C107.574 31.869 95.5412 28.5941 81.5263 28.6006C72.1822 28.6006 63.7224 30.0466 57.6196 32.3736C54.5677 33.5371 52.107 34.9213 50.4225 36.4403C48.7357 37.9629 47.8345 39.6025 47.8345 41.3005C47.8345 42.9981 48.7357 44.6377 50.4221 46.1603C55.4797 50.7325 67.5127 54.0065 81.5263 54C90.8704 54 99.3301 52.554 105.432 50.227C108.485 49.0635 110.946 47.6793 112.63 46.1603C114.317 44.6377 115.218 42.9981 115.218 41.3005H115.693C115.693 43.1758 114.695 44.9388 112.948 46.512C107.703 51.2268 95.6203 54.4686 81.5263 54.4747C72.1326 54.4747 63.628 53.0249 57.4508 50.6703C54.3615 49.4928 51.854 48.0889 50.1041 46.512C48.3569 44.9388 47.3599 43.1758 47.3599 41.3005C47.3599 39.4248 48.3569 37.6622 50.1045 36.0886C55.3497 31.3738 67.4332 28.1325 81.5263 28.1259C90.9213 28.1259 99.426 29.5757 105.603 31.9303C108.691 33.1078 111.199 34.5126 112.948 36.0886C114.695 37.6618 115.693 39.4248 115.693 41.3005H115.456Z" fill="white" fill-opacity="0.23"/>
<path fill-rule="evenodd" clip-rule="evenodd" d="M84.7801 44.4025C84.1953 44.4984 83.6036 44.5456 83.011 44.5437C81.6632 44.54 80.3739 44.3249 79.6336 43.889C79.2361 43.6515 78.9813 43.3596 78.9756 42.9953C78.985 42.5852 79.2951 42.2831 79.7375 42.0404C80.1873 41.7968 80.8177 41.6008 81.6127 41.4647C82.491 41.3151 83.4314 41.2449 84.3578 41.2449C86.4445 41.2496 88.4497 41.5915 89.5613 42.2494C90.166 42.6114 90.52 43.0365 90.5247 43.5322C90.5163 44.0901 90.0814 44.5376 89.4056 44.9057C88.7224 45.2765 87.7483 45.5814 86.517 45.7919C85.1538 46.0238 83.6924 46.1328 82.252 46.1328C79.007 46.1291 75.8826 45.588 74.1869 44.5816C73.2596 44.0265 72.7513 43.3938 72.747 42.6928C72.7564 41.9057 73.384 41.2309 74.4259 40.6632C75.4748 40.095 76.9849 39.6203 78.8994 39.2944C81.0212 38.9343 83.2977 38.7627 85.5419 38.7627C90.5939 38.7664 95.4673 39.6175 98.073 41.1701C99.5064 42.0259 100.255 42.9846 100.258 44.0041C100.249 45.1521 99.3169 46.181 97.7059 47.0578C96.086 47.937 93.7393 48.6763 90.7585 49.1837C87.4523 49.7449 83.9023 50.0115 80.4024 50.0115C72.524 50.0068 64.9153 48.6726 60.8866 46.2717L61.1307 45.863C65.0051 48.1862 72.5834 49.5401 80.4024 49.5363C83.8775 49.5363 87.4031 49.2717 90.6795 48.7151C93.6252 48.2148 95.9302 47.4829 97.48 46.6411C99.0378 45.797 99.793 44.858 99.7836 44.0041C99.7888 43.2455 99.2052 42.4 97.8289 41.5774C95.3775 40.1043 90.534 39.2336 85.5419 39.2373C83.3224 39.2373 81.0693 39.4075 78.9785 39.763C77.099 40.0819 75.6305 40.5486 74.6513 41.0808C73.6646 41.6148 73.2128 42.1999 73.2222 42.6928C73.2166 43.1314 73.5617 43.6529 74.4311 44.1743C75.9729 45.1016 79.0668 45.6619 82.2525 45.6581C83.6685 45.6581 85.1047 45.5506 86.4379 45.3233C87.6337 45.1213 88.5667 44.8229 89.1802 44.4895C89.8027 44.1532 90.0594 43.7941 90.05 43.5322C90.0556 43.2984 89.8648 42.9851 89.3177 42.6577C88.359 42.0778 86.3846 41.7163 84.3573 41.7201C83.4548 41.7201 82.5401 41.7888 81.6918 41.9328C80.9332 42.0614 80.3431 42.2508 79.9629 42.458C79.5738 42.667 79.4414 42.8808 79.4508 42.9953C79.4456 43.0978 79.5387 43.2778 79.8773 43.4803C80.4637 43.838 81.7231 44.0728 83.011 44.0695C83.5829 44.0695 84.1642 44.0251 84.7011 43.9339L84.7801 44.4025Z" fill="white" fill-opacity="0.23"/>
</svg>
