<svg width="85" height="77" viewBox="0 0 85 77" fill="none" xmlns="http://www.w3.org/2000/svg">
<g clip-path="url(#clip0_3_1498)">
<path d="M70.0201 13.1051C70.0201 23.2107 67.2626 28.4251 64.3813 33.824C61.407 39.4075 58.0764 45.637 58.0764 57.9423C58.0764 66.4175 59.672 72.0164 61.6238 76.4924L61.2985 76.6308V76.2771H61.3605C67.7119 76.2771 73.4436 73.7237 77.6107 69.5861C81.7623 65.4485 84.3339 59.7419 84.3339 53.4355V23.5338C84.3339 16.1968 80.8484 9.67499 75.4265 5.49121L75.8602 4.93747C81.437 9.24431 85.031 15.966 85.031 23.5338V53.4816C85.031 66.479 74.435 77 61.3605 77H61.314H61.0971L61.0042 76.8C59.0213 72.2471 57.4102 66.5405 57.4102 57.973C57.4102 45.5447 60.8183 39.1153 63.8081 33.5318C66.6894 28.1175 69.3694 23.1185 69.3694 13.1358H70.0665L70.0201 13.1051ZM64.9389 13.1051H65.2952C65.2952 22.0417 63.0335 26.3332 60.2141 31.6091C56.9765 37.6848 53.3516 44.4527 53.3516 57.9423C53.3516 65.8022 54.5909 71.3704 56.2639 75.8618L56.4963 76.4616L55.8611 76.3078C45.4356 73.8468 37.6745 64.5563 37.6745 53.4509V23.5338C37.6745 10.5364 48.2705 0 61.345 0C61.8252 0 62.2745 0.0461446 62.7082 0.0615262H62.9251L63.0026 0.276868C64.3968 3.64543 65.2952 7.44467 65.2952 13.1051H64.5981C64.5981 7.50619 63.7151 3.83 62.3519 0.538354L62.6772 0.39992V0.738314C62.197 0.707551 61.7633 0.676788 61.3295 0.676788C54.9781 0.676788 49.2464 3.23012 45.0793 7.36776C40.9277 11.5054 38.3561 17.2119 38.3561 23.5184V53.4662C38.3561 64.2487 45.8848 73.2623 56.0005 75.6618L55.9231 76.0002L55.5978 76.1233C53.9092 71.5703 52.639 65.8945 52.639 57.9576C52.639 44.3604 56.3414 37.3771 59.579 31.3014C62.3984 26.0102 64.5826 21.9341 64.5826 13.1205H64.9235L64.9389 13.1051ZM6.35138 59.9265C7.79205 56.2964 10.1002 52.205 14.9025 47.4521C21.858 40.5304 27.3884 38.8384 32.1597 37.3771C34.0806 36.7926 35.9395 36.2235 37.8604 35.3622L38.1392 35.9928C36.1719 36.8696 34.2819 37.4541 32.361 38.0386C27.5898 39.4998 22.2763 41.1149 15.3827 47.9443C10.6424 52.651 8.4117 56.6195 6.98651 60.188L6.33589 59.9265H6.35138ZM38.0463 53.5124L31.8963 59.6189C28.2559 63.2489 23.4691 65.0639 18.6823 65.0639V64.3717C23.2832 64.3717 27.8841 62.6336 31.4006 59.142L37.5506 53.0356L38.0463 53.5278V53.5124ZM38.1857 30.5785C35.5367 32.1936 33.0736 32.9473 30.3007 33.7932C25.1112 35.3775 19.3175 37.1464 11.7888 44.6219C7.38928 48.9902 4.97266 52.7587 3.39256 56.1734L3.11372 56.7579L2.77292 56.2042C0.92947 53.2201 0 49.8362 0 46.4676C0 41.7301 1.81247 36.9772 5.46838 33.3626L22.2143 16.7197C25.8547 13.0897 30.6415 11.2747 35.4283 11.2747C37.2872 11.2747 39.1462 11.5515 40.9431 12.0899L40.7418 12.7513C39.0067 12.2283 37.2253 11.9668 35.4283 11.9668C30.8274 11.9668 26.2265 13.705 22.71 17.1966L5.94861 33.8548C2.4476 37.331 0.697102 41.8993 0.697102 46.4676C0.697102 49.7285 1.5801 52.974 3.36158 55.8504L3.06725 56.035L2.75743 55.8965C4.36851 52.4203 6.84709 48.5595 11.2931 44.145C18.8992 36.5773 24.8943 34.7315 30.0993 33.1472C32.8877 32.3012 35.2579 31.5629 37.8294 30.0094L38.2012 30.5939L38.1857 30.5785Z" fill="#1D1D1B"/>
</g>
<defs>
<clipPath id="clip0_3_1498">
<rect width="85" height="77" fill="white"/>
</clipPath>
</defs>
</svg>
