<svg width="100" height="99" viewBox="0 0 100 99" fill="none" xmlns="http://www.w3.org/2000/svg">
<path d="M99.32 0H0.320007V99H99.32V0Z" fill="#CF002C"/>
<path d="M40.0741 52.4212C40.0741 52.4212 40.2979 52.4585 41.2924 52.645C41.0314 52.9931 41.1929 53.6395 41.2426 53.6395C42.0258 53.6395 42.4733 53.5649 42.5231 53.6022C43.5673 54.3356 42.809 56.6726 47.0479 54.7956C47.7814 55.1561 48.4899 57.0207 47.5576 59.3453C47.0106 60.7003 45.8546 62.7265 44.6239 64.0317C45.1087 64.9516 47.8932 65.2624 50.2426 64.3923C54.1584 62.8011 55.2896 57.5179 60.6473 56.1257C51.9705 53.2044 53.7482 49.1892 53.7482 49.1892C55.0783 49.8356 55.8615 48.7168 55.7247 48.0207C56.396 48.0207 56.8559 47.5359 56.8559 46.9392C56.8559 46.3425 56.483 45.9074 56.0106 45.9074C55.8739 45.9074 55.7496 45.9447 55.6501 46.0069C55.3891 40.0276 60.9581 31.0898 66.2661 26.7638C62.512 35.4033 63.7799 38.5981 63.7924 38.6105C63.8172 38.6478 65.9305 38.8342 67.7951 38.7472C67.733 38.5359 67.3849 37.4544 67.4222 34.3839C67.4595 30.692 69.6722 27.1243 69.6101 23.4074C69.5603 20.1505 68.0811 19.0939 66.7013 19.0939C65.7316 19.0939 65.1971 19.4792 64.9609 19.703C64.7744 19.5911 64.5506 19.5165 64.3145 19.5165C63.8421 19.5165 63.4443 19.7776 63.233 20.163C61.1943 18.4102 59.4912 17.7141 59.4912 17.7141C55.8738 22.6492 53.599 24.0787 49.4719 27.0746C43.5424 31.3881 39.3159 36.8204 39.3159 36.8204C39.117 36.4724 38.7689 36.2362 38.3586 36.2362C37.7371 36.2362 37.2275 36.808 37.2275 37.5166C37.2275 38.0014 37.4636 38.424 37.8241 38.6353C37.4761 38.6353 37.2026 38.9959 37.2026 39.4309C37.2026 39.866 37.5009 40.2141 37.849 40.2141C36.7924 43.3591 37.9236 44.7762 39.0175 46.2804C40.273 47.884 39.9995 48.5801 39.8379 48.866C39.6639 49.1768 38.9057 50.1961 38.7316 50.4074C38.6322 50.5442 38.6197 50.5815 38.6446 50.6436C39.1046 51.3273 40.3476 51.5635 40.3476 51.5635C40.3103 51.7003 40.1736 52.098 40.0617 52.4088M64.8988 21.7914C65.2841 21.5925 65.5451 21.1947 65.5451 20.7348C65.5451 20.6229 65.5203 20.511 65.4954 20.4116C65.7067 20.2624 65.9554 20.163 66.2164 20.163C66.9996 20.163 67.6584 21.0083 67.6708 22.0525C67.6708 22.4254 67.5838 23.2955 67.0866 24.75C66.4029 23.6063 65.6571 22.6367 64.9112 21.8038" fill="white"/>
<path d="M47.3214 71.9129C47.5451 71.9253 47.8684 71.9626 48.3532 71.9999C48.6267 72.0248 48.6391 72.1615 48.6764 72.2734L48.7136 72.4723L48.8753 72.6339H49.0618L49.2234 72.4599V71.279L49.0618 71.1173C48.9623 71.0925 47.57 70.9806 46.8366 71.0055C45.9664 71.0428 44.4747 71.2789 44.4747 72.7334C44.4747 73.4171 44.8849 73.9392 45.4443 74.1008C45.7675 74.2002 46.0658 74.2499 46.3517 74.337C46.6128 74.4115 46.8863 74.4861 47.1847 74.598C47.3836 74.685 47.5327 74.8839 47.5327 75.1201C47.5327 75.4309 47.2841 75.6795 46.9733 75.6795C46.6252 75.6795 46.0286 75.7168 45.5438 75.6298C45.2827 75.5801 45.2579 75.4682 45.2206 75.3563L45.1709 75.1077L44.9968 74.9461H44.8103L44.6363 75.1077V76.2886L44.7979 76.4502C44.8973 76.4875 46.2772 76.587 47.0231 76.5621C47.8932 76.5248 49.3725 76.2886 49.3725 74.8342C49.3725 74.1505 48.9623 73.6408 48.4029 73.4668C47.7067 73.2554 47.309 73.2182 46.6501 72.9695C46.4513 72.8825 46.302 72.6837 46.302 72.4475C46.302 72.0248 46.6004 71.8508 47.2717 71.9005" fill="white"/>
<path d="M28.0286 70.5455V75.2941C28.0037 75.7914 27.867 75.8038 27.7302 75.8535L27.2454 75.953L27.0838 76.1146V76.301L27.2454 76.4626H30.7758L30.9374 76.301V76.1146L30.7758 75.953L30.291 75.8535C30.1543 75.8038 30.0175 75.7914 29.9927 75.2941V69.5386L29.8311 69.377H27.2454L27.0838 69.5386V69.7251L27.2454 69.8867L27.7302 69.9861C27.867 70.0358 28.0161 70.0483 28.0286 70.5455Z" fill="white"/>
<path d="M84.9872 70.5455V75.2941C84.9623 75.7914 84.8256 75.8038 84.6888 75.8535L84.2786 75.953L84.117 76.1146V76.301L84.2786 76.4626H87.6847L87.8463 76.301V76.1146L87.6847 75.953L87.1999 75.8535C87.0632 75.8038 86.9264 75.7914 86.9016 75.2941V69.5386L86.7275 69.377H84.2661L84.1046 69.5386V69.7251L84.2661 69.8867L84.6764 69.9861C84.8131 70.0358 84.9623 70.0483 84.9747 70.5455" fill="white"/>
<path d="M34.7662 69.576C34.7662 70.0235 34.1943 70.384 33.4857 70.384C32.7772 70.384 32.2054 70.0235 32.2054 69.576C32.2054 69.1284 32.7772 68.7679 33.4857 68.7679C34.1943 68.7679 34.7662 69.1284 34.7662 69.576Z" fill="white"/>
<path d="M32.6653 72.2734V75.2941C32.6405 75.7914 32.5037 75.8038 32.3669 75.8536L31.8822 75.953L31.7206 76.1146V76.3011L31.8946 76.4627H35.425L35.5866 76.3011V76.1146L35.425 75.953L34.9401 75.8536C34.8034 75.8038 34.6667 75.7914 34.6418 75.2941V71.2665L34.4678 71.0925H31.8822L31.7081 71.2665V71.453L31.8697 71.6146L32.3546 71.714C32.4913 71.7638 32.6405 71.7762 32.6529 72.2734" fill="white"/>
<path d="M74.4457 69.576C74.4457 70.0235 73.8739 70.384 73.1653 70.384C72.4567 70.384 71.8849 70.0235 71.8849 69.576C71.8849 69.1284 72.4567 68.7679 73.1653 68.7679C73.8739 68.7679 74.4457 69.1284 74.4457 69.576Z" fill="white"/>
<path d="M72.3325 72.2734V75.2941C72.3076 75.7914 72.1709 75.8038 72.0341 75.8536L71.5493 75.953L71.3877 76.1146V76.3011L71.5493 76.4627H75.0797L75.2413 76.3011V76.1146L75.0797 75.953L74.5949 75.8536C74.4582 75.8038 74.3214 75.7914 74.2966 75.2941V71.2665L74.135 71.0925H71.5493L71.3877 71.2665V71.453L71.5493 71.6146L72.0341 71.714C72.1709 71.7638 72.32 71.7762 72.3325 72.2734Z" fill="white"/>
<path d="M58.4347 76.2141L58.5963 76.3135L58.7579 76.2141L61.0825 71.3784V75.3066C61.0576 75.8038 60.9209 75.8163 60.7842 75.866L60.2993 75.9654L60.1377 76.127V76.3135L60.2993 76.4751H63.9167L64.0783 76.3135V76.127L63.9167 75.9654L63.432 75.866C63.2952 75.8163 63.1584 75.8038 63.1335 75.3066V70.558C63.146 70.0607 63.2952 70.0483 63.432 69.9986L63.9167 69.8991L64.0783 69.7375V69.5511L63.9167 69.3895H61.3684L61.1695 69.5511L59.3297 73.3549L57.4899 69.5511L57.2911 69.3895H54.5935L54.4319 69.5511V69.7375L54.5935 69.8991L55.0783 69.9986C55.2151 70.0483 55.3642 70.0607 55.3766 70.558V75.3066C55.3518 75.8038 55.2151 75.8163 55.0783 75.866L54.5935 75.9654L54.4319 76.127V76.3135L54.5935 76.4751H56.8684L57.03 76.3135V76.127L56.8684 75.9654L56.3836 75.866C56.2468 75.8163 56.0977 75.8038 56.0852 75.3066V71.3784L58.4222 76.2141H58.4347Z" fill="white"/>
<path d="M19.6377 74.3991C19.6377 73.877 19.6252 73.1685 19.6252 72.3978V72.2859C19.6128 71.7886 19.4636 71.7762 19.3269 71.7265L18.954 71.627L18.7924 71.4654V71.279L18.9664 71.1174H21.5272L21.6888 71.279V74.6229C21.6888 75.3936 22.0368 75.6049 22.5838 75.6049C23.1307 75.6049 23.4788 75.3936 23.4788 74.6229V72.2859C23.4664 71.7886 23.3173 71.7762 23.1805 71.7265L22.6957 71.627L22.5341 71.4654V71.279L22.7081 71.1174H25.3807L25.5424 71.279V75.3066C25.5548 75.8038 25.7039 75.8163 25.8407 75.866L26.3255 75.9654L26.4871 76.127V76.3135L26.3131 76.4751H23.8642L23.6902 76.3135V75.8411C23.4291 76.2762 22.9691 76.6118 22.1238 76.6118C19.5755 76.6118 19.6252 75.1698 19.6252 74.4116" fill="white"/>
<path d="M36.9167 74.3991C36.9167 73.877 36.9042 73.1685 36.9042 72.3978V72.2859C36.8918 71.7886 36.7426 71.7762 36.6059 71.7265L36.1211 71.627L35.9595 71.4654V71.279L36.1211 71.1174H38.7938L38.9554 71.279V74.6229C38.9554 75.3936 39.3034 75.6049 39.8504 75.6049C40.3973 75.6049 40.7454 75.3936 40.7454 74.6229V72.2859C40.733 71.7886 40.5838 71.7762 40.447 71.7265L39.9623 71.627L39.8007 71.4654V71.279L39.9623 71.1174H42.6349L42.7965 71.279V75.3066C42.8089 75.8038 42.9581 75.8163 43.0948 75.866L43.5796 75.9654L43.7413 76.127V76.3135L43.5796 76.4751H41.1308L40.9567 76.3135V75.8411C40.6957 76.2762 40.2357 76.6118 39.3904 76.6118C36.8421 76.6118 36.8918 75.1698 36.8918 74.4116" fill="white"/>
<path d="M76.7703 75.3066V72.2859C76.7455 71.7887 76.6087 71.7762 76.472 71.7265L75.9872 71.6271L75.8256 71.453V71.2666L75.9872 71.105H78.4361L78.6101 71.279V71.7514C78.8711 71.3163 79.3311 70.9807 80.1764 70.9807C82.7247 70.9807 82.675 72.4227 82.675 73.181C82.675 73.7031 82.6875 74.4116 82.6875 75.1823V75.2942C82.6999 75.7914 82.8491 75.8039 82.9858 75.8536L83.4706 75.953L83.6322 76.1146V76.3011L83.4706 76.4627H80.7979L80.6363 76.3011V72.9572C80.6363 72.1864 80.2883 71.9751 79.7413 71.9751C79.1944 71.9751 78.8463 72.1864 78.8463 72.9572V75.2942C78.8587 75.7914 79.0079 75.8039 79.1446 75.8536L79.6294 75.953L79.791 76.1146V76.3011L79.6294 76.4627H76.0121L75.8504 76.3011V76.1146L76.0121 75.953L76.4968 75.8536C76.6335 75.8039 76.7703 75.7914 76.7952 75.2942L76.7703 75.3066Z" fill="white"/>
<path d="M69.8338 75.0331L69.8587 74.9213L70.0327 74.7597H70.2191L70.3932 74.9213V76.1022L70.2316 76.2762C69.7344 76.4378 68.8642 76.5994 67.7827 76.5994C65.7441 76.5994 64.762 75.7293 64.762 73.9019C64.762 72.4848 65.2717 71.0055 67.8324 71.0055C70.6915 71.0055 70.5548 73.0566 70.5424 73.8522L70.3683 74.0138H66.6267C66.6515 75.0207 66.9996 75.7293 68.2924 75.7293C68.8145 75.7293 69.2744 75.6298 69.5976 75.5055C69.7468 75.4434 69.7592 75.3563 69.7841 75.2693L69.8462 75.0207M68.7274 73.1809C68.7274 72.634 68.6032 71.9627 67.6957 71.9627C66.7882 71.9627 66.6764 72.5345 66.6267 73.1809H68.7274Z" fill="white"/>
<path d="M13.099 73.616C13.8076 73.616 14.4416 74.0013 14.4416 74.4737C14.4416 74.772 14.2179 75.0331 13.8698 75.1947L13.7082 75.4184C13.7082 75.6795 14.0438 75.9157 14.4789 75.9157C14.6778 75.9157 14.8642 75.866 15.001 75.7914C15.5479 75.4806 15.5604 74.4115 15.5604 74.1629V70.5455C15.5355 70.0483 15.3988 70.0358 15.262 69.9861L14.7772 69.8867L14.6156 69.7251V69.5386L14.7772 69.377H18.3946L18.5562 69.5386V69.7251L18.3946 69.8867L17.9098 69.9861C17.7731 70.0358 17.6363 70.0483 17.6114 70.5455V74.1629C17.6114 74.5358 17.5369 76.7858 15.001 76.7858C12.4651 76.7858 11.8683 75.6049 11.8683 74.8217C11.8683 74.1505 12.4029 73.616 13.0742 73.616" fill="white"/>
<path d="M24.6473 84.953H25.2689L27.3199 90.1616L29.4954 84.953H30.1169L27.668 90.6712H26.9719L24.6473 84.953Z" fill="white"/>
<path d="M31.2979 89.7016C31.2979 90.0248 31.3973 90.261 31.6957 90.261C31.8697 90.261 32.0438 90.174 32.1805 90.0746L32.2551 90.5345C32.1308 90.6339 31.8076 90.7582 31.5093 90.7582C30.9747 90.7582 30.7261 90.4351 30.7261 89.8135V86.2707H31.2979V89.7016ZM31.0244 84.6298C31.2606 84.6298 31.4222 84.7292 31.4222 85.0151C31.4222 85.3011 31.2606 85.4005 31.0244 85.4005C30.7758 85.4005 30.6142 85.2886 30.6142 85.0151C30.6142 84.7417 30.7758 84.6298 31.0244 84.6298Z" fill="white"/>
<path d="M36.2454 87.9116C36.2454 87.2527 35.8227 86.656 34.8531 86.656C33.8213 86.656 33.2122 87.3771 33.1625 88.2224H36.2206L36.2454 87.9116ZM36.7302 90.1989C36.2702 90.5594 35.6736 90.7955 34.9278 90.7955C33.2745 90.7955 32.5659 89.7513 32.5659 88.4958C32.5659 87.2403 33.4484 86.1712 34.8656 86.1712C36.1957 86.1712 36.7924 87.0041 36.7924 87.9986C36.7924 88.2472 36.755 88.5331 36.7177 88.6947H33.1501C33.2122 89.6146 33.7592 90.3107 34.9526 90.3107C35.599 90.3107 36.1211 90.0621 36.494 89.7762L36.7426 90.1989H36.7302Z" fill="white"/>
<path d="M38.3089 86.2707V87.0787C38.6073 86.5317 39.1791 86.1961 39.9125 86.1961C41.0437 86.1961 41.5907 87.0414 41.5907 88.1353V89.7016C41.5907 90.0372 41.7026 90.261 41.9885 90.261C42.1501 90.261 42.3117 90.1864 42.4857 90.0746L42.5479 90.5345C42.3614 90.6588 42.0755 90.7582 41.802 90.7582C41.2675 90.7582 41.0064 90.4351 41.0064 89.8135V88.2224C41.0064 87.3771 40.5963 86.7431 39.7261 86.7431C38.9802 86.7431 38.4581 87.2403 38.2965 87.8494V90.6712H37.7247V86.2707H38.2965H38.3089Z" fill="white"/>
<path d="M43.6667 86.2707V87.0787C43.965 86.5317 44.5368 86.1961 45.2702 86.1961C46.4015 86.1961 46.9485 87.0414 46.9485 88.1353V89.7016C46.9485 90.0372 47.0604 90.261 47.3463 90.261C47.5079 90.261 47.6694 90.1864 47.8435 90.0746L47.9056 90.5345C47.7067 90.6588 47.4332 90.7582 47.1598 90.7582C46.6252 90.7582 46.3642 90.4351 46.3642 89.8135V88.2224C46.3642 87.3771 45.954 86.7431 45.0838 86.7431C44.338 86.7431 43.8158 87.2403 43.6542 87.8494V90.6712H43.0825V86.2707H43.6542H43.6667Z" fill="white"/>
<path d="M51.7717 87.3025C51.4982 87.0041 51.001 86.7058 50.4167 86.7058C49.3849 86.7058 48.7261 87.4392 48.7261 88.4834C48.7261 89.5276 49.3849 90.2362 50.4167 90.2362C50.9885 90.2362 51.4858 89.9379 51.7717 89.652V87.3025ZM52.3435 89.7016C52.3435 90.0373 52.4429 90.2611 52.7413 90.2611C52.9153 90.2611 53.0645 90.1865 53.2261 90.0746L53.2883 90.5345C53.1018 90.6588 52.8159 90.7583 52.5424 90.7583C52.0949 90.7583 51.8587 90.5221 51.7842 90.0994C51.461 90.4599 50.914 90.7583 50.2675 90.7583C48.9747 90.7583 48.1295 89.8135 48.1295 88.4958C48.1295 87.1782 48.9747 86.2086 50.2675 86.2086C50.9015 86.2086 51.4236 86.4696 51.7593 86.8053V86.2831H52.3311V89.7141L52.3435 89.7016Z" fill="white"/>
<path d="M57.4899 84.953H57.9374V90.6712H57.3656V85.5994L55.2648 86.5566L55.0534 86.1091L57.4899 84.953Z" fill="white"/>
<path d="M59.9512 86.4074C59.9512 86.9295 60.3863 87.4392 61.5051 87.4392C62.6239 87.4392 63.0217 86.9295 63.0217 86.4074C63.0217 85.7113 62.3877 85.3632 61.4803 85.3632C60.5728 85.3632 59.9388 85.7113 59.9388 86.4074M59.7399 89.08C59.7399 89.8259 60.4858 90.261 61.4678 90.261C62.4499 90.261 63.1957 89.8135 63.1957 89.08C63.1957 88.4336 62.6861 87.9861 61.4803 87.9861C60.2745 87.9861 59.7275 88.4336 59.7275 89.08M59.1432 89.1298C59.1432 88.3218 59.6902 87.8245 60.5852 87.7002C59.8145 87.6008 59.3421 87.0165 59.3421 86.395C59.3421 85.4254 60.1626 84.8908 61.4554 84.8908C62.7482 84.8908 63.5687 85.4254 63.5687 86.395C63.5687 87.0165 63.0963 87.6008 62.3256 87.7002C63.2206 87.837 63.7675 88.3218 63.7675 89.1298C63.7675 90.1491 62.8477 90.7582 61.4554 90.7582C60.0631 90.7582 59.1432 90.1491 59.1432 89.1298Z" fill="white"/>
<path d="M65.2966 88.4584C65.483 89.5151 66.1543 90.2236 67.2233 90.2236C68.1432 90.2236 68.8269 89.5897 68.8269 88.7444C68.8269 87.812 68.1557 87.3397 67.2233 87.3397C66.1791 87.3397 65.5327 88.0979 65.2966 88.4584ZM68.9636 85.8728C68.6653 85.6491 68.0686 85.3631 67.2979 85.3631C65.9554 85.3631 65.2468 86.3576 65.2468 87.7872V87.8991C65.5327 87.5137 66.1916 86.8424 67.3104 86.8424C68.6032 86.8424 69.4112 87.5385 69.4112 88.7319C69.4112 89.9253 68.4789 90.7458 67.2358 90.7458C65.6198 90.7458 64.6874 89.5648 64.6874 87.7996C64.6874 86.0344 65.6197 84.8659 67.2606 84.8659C68.1681 84.8659 68.8767 85.1891 69.1874 85.4004L68.9761 85.8728H68.9636Z" fill="white"/>
<path d="M74.483 90.6711H70.269V90.2236L72.6929 88.3963C73.4139 87.8618 73.7372 87.377 73.7372 86.7306C73.7372 85.9971 73.2773 85.4129 72.2952 85.4129C71.251 85.4129 70.7289 86.0468 70.704 86.9046L70.1695 86.8176C70.2068 85.6739 70.9402 84.8784 72.2952 84.8784C73.6502 84.8784 74.309 85.7236 74.309 86.6808C74.309 87.4515 73.9982 88.0607 73.1156 88.7071L71.164 90.1615H74.483V90.6711Z" fill="white"/>
</svg>
