<svg width="375" height="303" viewBox="0 0 375 303" fill="none" xmlns="http://www.w3.org/2000/svg">
<path fill-rule="evenodd" clip-rule="evenodd" d="M343.581 256.261C348.728 257.974 354.667 258.943 361.038 258.942C371.236 258.943 380.319 256.462 386.829 252.423C393.342 248.38 397.257 242.815 397.256 236.615C397.257 230.418 393.342 224.852 386.829 220.809C380.319 216.772 371.236 214.291 361.038 214.291C350.841 214.291 341.758 216.772 335.248 220.808C328.736 224.852 324.82 230.418 324.821 236.615C324.823 240.815 326.609 244.708 329.788 248.049C329.849 248.119 329.881 248.21 329.877 248.302C329.873 248.395 329.833 248.483 329.766 248.547C329.699 248.611 329.609 248.646 329.517 248.646C329.424 248.646 329.335 248.609 329.268 248.544C325.991 245.101 324.103 241.024 324.104 236.615C324.106 230.095 328.224 224.319 334.871 220.2C341.522 216.076 350.726 213.575 361.038 213.575C371.351 213.575 380.555 216.076 387.206 220.2C393.854 224.32 397.971 230.095 397.973 236.615C397.971 243.138 393.853 248.914 387.206 253.033C380.555 257.157 371.351 259.659 361.038 259.659C354.593 259.659 348.581 258.679 343.355 256.942C343.264 256.912 343.19 256.847 343.147 256.762C343.104 256.677 343.097 256.579 343.127 256.488C343.157 256.398 343.222 256.323 343.307 256.281C343.392 256.238 343.491 256.231 343.581 256.261ZM332.411 250.437C334.264 251.904 336.417 253.224 338.819 254.36C338.999 254.444 339.075 254.658 338.99 254.837C338.97 254.88 338.941 254.918 338.907 254.949C338.872 254.981 338.831 255.006 338.787 255.022C338.743 255.037 338.696 255.044 338.649 255.042C338.602 255.04 338.556 255.028 338.513 255.008C336.067 253.85 333.867 252.504 331.966 250.999C331.929 250.97 331.898 250.933 331.875 250.892C331.852 250.851 331.837 250.806 331.832 250.759C331.827 250.712 331.831 250.665 331.844 250.62C331.857 250.574 331.879 250.532 331.908 250.495C331.937 250.458 331.973 250.427 332.014 250.404C332.055 250.381 332.1 250.366 332.147 250.361C332.194 250.356 332.241 250.359 332.287 250.372C332.332 250.385 332.374 250.407 332.411 250.437Z" fill="white" fill-opacity="0.23"/>
<path fill-rule="evenodd" clip-rule="evenodd" d="M361.039 213.887V213.528C371.789 213.53 381.381 216.124 388.311 220.403C395.236 224.677 399.526 230.669 399.528 237.432V244.209C399.528 252.149 395.263 259.216 388.334 264.272C381.403 269.334 371.797 272.408 361.039 272.408C350.281 272.408 340.676 269.334 333.745 264.272C326.816 259.216 322.549 252.149 322.551 244.209V237.432C322.554 230.669 326.843 224.677 333.769 220.403C340.699 216.124 350.291 213.53 361.04 213.528V214.245C350.408 214.243 340.933 216.821 334.145 221.014C327.352 225.212 323.268 230.992 323.269 237.433V244.209C323.269 251.881 327.378 258.734 334.169 263.694C340.956 268.65 350.418 271.69 361.04 271.69C371.662 271.69 381.124 268.65 387.911 263.694C394.701 258.734 398.809 251.881 398.811 244.209V237.432C398.812 230.992 394.728 225.212 387.935 221.014C381.147 216.821 371.672 214.243 361.04 214.245L361.04 213.887H361.039ZM328.022 236.616H328.381C328.376 241.717 331.958 246.402 337.871 249.831C343.779 253.253 351.979 255.385 361.039 255.383C370.1 255.385 378.3 253.253 384.207 249.831C390.12 246.403 393.703 241.717 393.698 236.616C393.703 231.515 390.121 226.83 384.207 223.403C378.3 219.981 370.1 217.849 361.039 217.85C351.979 217.849 343.779 219.981 337.871 223.403C331.959 226.83 328.376 231.515 328.381 236.616H327.663C327.666 231.155 331.476 226.277 337.514 222.783C343.556 219.285 351.865 217.135 361.039 217.133C370.214 217.135 378.522 219.285 384.565 222.783C390.603 226.277 394.41 231.155 394.416 236.616C394.41 242.078 390.603 246.956 384.565 250.451C378.522 253.949 370.214 256.099 361.039 256.101C351.865 256.099 343.556 253.949 337.514 250.451C331.476 246.956 327.666 242.078 327.663 236.616H328.022ZM333.319 246.944C339.335 241.729 349.502 238.332 361.039 238.33C372.576 238.332 382.743 241.729 388.756 246.944L388.288 247.486C382.463 242.423 372.434 239.044 361.039 239.046C349.642 239.044 339.614 242.423 333.789 247.486L333.32 246.944H333.319ZM395.798 256.441C395.314 263.283 391.308 269.318 385.092 273.624C378.877 277.931 370.446 280.528 361.039 280.528C351.633 280.528 343.2 277.931 336.984 273.624C330.771 269.318 326.765 263.283 326.281 256.441L326.993 256.389C327.461 262.976 331.315 268.818 337.392 273.034C343.47 277.246 351.762 279.812 361.039 279.812C370.316 279.812 378.609 277.246 384.685 273.034C390.762 268.818 394.617 262.976 395.083 256.39L395.798 256.441ZM375.547 262.536H375.906C375.905 263.087 375.716 263.621 375.371 264.051C375.027 264.48 374.546 264.78 374.008 264.9C369.989 265.814 365.625 266.309 361.039 266.309C356.454 266.309 352.089 265.814 348.071 264.9C347.533 264.78 347.052 264.48 346.707 264.051C346.363 263.621 346.174 263.087 346.173 262.536V260.496L346.623 260.613C351.018 261.761 355.884 262.4 361.039 262.4C366.195 262.4 371.06 261.761 375.456 260.613L375.906 260.496V262.536H375.188V260.959H375.547L375.638 261.306C371.178 262.471 366.255 263.117 361.039 263.117C355.824 263.117 350.899 262.471 346.441 261.306L346.532 260.959H346.891V262.536C346.891 263.335 347.447 264.022 348.231 264.202C352.195 265.103 356.505 265.591 361.04 265.591C365.574 265.591 369.884 265.103 373.849 264.202C374.228 264.118 374.567 263.906 374.81 263.604C375.054 263.301 375.187 262.924 375.188 262.536H375.547V262.536ZM375.906 261.126V265.868C375.905 266.419 375.717 266.954 375.372 267.383C375.027 267.813 374.546 268.113 374.008 268.232C369.989 269.146 365.625 269.642 361.039 269.642C356.454 269.642 352.089 269.146 348.071 268.232C347.533 268.113 347.052 267.813 346.707 267.383C346.362 266.954 346.174 266.419 346.173 265.868V261.036H346.891V265.868C346.891 266.668 347.447 267.356 348.231 267.535C352.195 268.435 356.505 268.926 361.04 268.926C365.574 268.926 369.884 268.435 373.849 267.535C374.228 267.451 374.567 267.24 374.811 266.937C375.054 266.634 375.187 266.257 375.188 265.868V261.126H375.906ZM361.039 213.933V214.292C355.886 214.292 351.018 214.926 346.623 216.074L346.173 216.191V215.421C346.174 214.87 346.362 214.336 346.707 213.906C347.052 213.476 347.533 213.176 348.071 213.056C352.089 212.144 356.454 211.648 361.039 211.648C365.625 211.648 369.989 212.144 374.008 213.056C374.546 213.177 375.026 213.476 375.371 213.906C375.716 214.336 375.905 214.87 375.906 215.421V216.191L375.456 216.074C371.061 214.926 366.192 214.292 361.039 214.292V213.574C366.251 213.574 371.18 214.215 375.638 215.38L375.547 215.727H375.188V215.421C375.188 214.623 374.632 213.934 373.848 213.754C369.884 212.856 365.574 212.364 361.039 212.364C356.505 212.364 352.195 212.856 348.23 213.754C347.851 213.839 347.512 214.05 347.269 214.353C347.025 214.656 346.892 215.032 346.891 215.421V215.727H346.532L346.441 215.38C350.899 214.215 355.827 213.574 361.039 213.574V213.933ZM404.697 243.377C405.272 243.108 405.719 242.61 406.033 241.892C406.343 241.177 406.51 240.249 406.509 239.187C406.511 237.288 405.982 234.969 404.905 232.648C403.924 230.54 402.654 228.777 401.342 227.556C400.03 226.329 398.68 225.663 397.588 225.669C397.223 225.669 396.885 225.74 396.571 225.885L396.269 225.234C396.683 225.045 397.133 224.948 397.588 224.951C398.965 224.958 400.438 225.736 401.83 227.031C403.223 228.329 404.539 230.162 405.554 232.346C406.67 234.749 407.227 237.158 407.227 239.187C407.227 240.323 407.053 241.341 406.689 242.177C406.329 243.012 405.765 243.672 405 244.026L404.697 243.377ZM467.097 185.407L466.92 185.094C469.482 183.631 472.381 182.861 475.331 182.861C481.734 182.86 487.914 186.479 490.822 192.739C491.871 194.986 492.415 197.436 492.416 199.916C492.418 206.822 488.191 213.377 481.246 215.937L398.709 246.334L398.749 245.779C398.786 245.256 398.811 244.734 398.811 244.209V237.432C398.809 233.533 397.31 229.889 394.624 226.676L394.348 226.349L466.92 185.094L467.097 185.407L467.274 185.719L395.077 226.76L394.9 226.446L395.175 226.218C397.947 229.529 399.528 233.345 399.528 237.432V244.209C399.528 244.755 399.504 245.294 399.464 245.83L399.107 245.805L398.983 245.468L480.998 215.263C487.651 212.813 491.698 206.532 491.698 199.915C491.698 197.616 491.211 195.277 490.171 193.04C487.387 187.043 481.467 183.578 475.331 183.578C472.505 183.579 469.728 184.317 467.274 185.719L467.097 185.407Z" fill="white" fill-opacity="0.23"/>
<path fill-rule="evenodd" clip-rule="evenodd" d="M364.203 279.927C367.657 283.67 372.594 290.571 374.947 295.459C374.967 295.502 374.979 295.548 374.982 295.594C374.985 295.641 374.978 295.688 374.963 295.733C374.947 295.777 374.923 295.818 374.892 295.853C374.86 295.888 374.822 295.917 374.78 295.937C374.738 295.957 374.692 295.97 374.645 295.972C374.598 295.975 374.551 295.969 374.506 295.953C374.462 295.938 374.421 295.914 374.386 295.882C374.351 295.851 374.322 295.813 374.302 295.77C372.004 290.986 367.068 284.084 363.676 280.413C363.616 280.342 363.587 280.251 363.593 280.159C363.599 280.067 363.64 279.981 363.708 279.918C363.775 279.856 363.865 279.822 363.957 279.823C364.049 279.825 364.138 279.862 364.203 279.926" fill="white" fill-opacity="0.23"/>
<path fill-rule="evenodd" clip-rule="evenodd" d="M379.22 276.538C379.688 277.311 379.686 277.343 380.098 278.103C380.827 279.447 381.313 280.91 381.534 282.423L382.692 290.328C382.713 290.47 382.722 290.613 382.722 290.757C382.703 292.635 381.165 294.857 379.08 296.128C378.154 296.686 377.25 296.967 376.452 296.968C375.879 296.968 375.357 296.82 374.949 296.501C374.541 296.183 374.273 295.701 374.191 295.122L373.078 287.544C372.839 285.91 372.331 284.321 371.511 282.839C370.909 281.742 370.364 280.544 369.599 279.592L370.159 279.143C370.997 280.194 371.555 281.432 372.14 282.493C373.002 284.054 373.539 285.727 373.788 287.44L374.899 295.019C374.965 295.447 375.139 295.736 375.392 295.935C375.645 296.134 376.002 296.25 376.451 296.25C377.077 296.253 377.87 296.019 378.71 295.514C380.619 294.379 382.025 292.231 382.006 290.757L381.983 290.433L380.824 282.527C380.617 281.097 380.158 279.715 379.468 278.446C379.045 277.666 379.069 277.674 378.606 276.909L379.22 276.538ZM351.897 279.163C352.27 280.858 353.706 282.724 355.934 284.258C358.158 285.796 361.16 287.009 364.617 287.458C365.255 287.543 368.384 287.675 370.15 287.747L370.119 288.465C368.338 288.389 365.256 288.264 364.525 288.169C360.957 287.704 357.853 286.456 355.526 284.85C353.201 283.24 351.638 281.276 351.197 279.319L351.897 279.163Z" fill="white" fill-opacity="0.23"/>
<path fill-rule="evenodd" clip-rule="evenodd" d="M243.526 35.6809V35.4433C251.997 35.4433 259.704 36.5343 265.468 38.3254C268.35 39.2219 270.748 40.2919 272.519 41.4984C274.285 42.7031 275.439 44.0499 275.782 45.5221L275.551 45.5749L275.376 45.414C276.577 44.1042 277.218 42.7251 277.218 41.2997C277.218 39.6021 276.316 37.9625 274.63 36.4408C269.574 31.8686 257.541 28.5937 243.526 28.6002C234.182 28.6002 225.722 30.0462 219.62 32.3746C216.569 33.5367 214.108 34.9209 212.423 36.4408C210.737 37.9625 209.835 39.6021 209.835 41.2997C209.835 42.7255 210.476 44.1042 211.678 45.414L211.502 45.5749L211.272 45.5221C211.613 44.0499 212.767 42.7031 214.535 41.4984C219.841 37.89 230.816 35.4489 243.526 35.4433V35.9184C235.095 35.9184 227.428 37.0067 221.726 38.7795C218.873 39.6643 216.514 40.7226 214.802 41.8898C213.086 43.059 212.03 44.3324 211.733 45.6282L211.632 46.0678L211.327 45.7358C210.072 44.3688 209.361 42.8733 209.361 41.2997C209.361 39.4258 210.358 37.6614 212.106 36.0882C217.351 31.3734 229.433 28.1316 243.526 28.1255C252.921 28.1255 261.426 29.5753 267.603 31.9308C270.691 33.1088 273.198 34.5122 274.948 36.0882C276.695 37.6614 277.693 39.4258 277.693 41.2997C277.693 42.8733 276.982 44.3688 275.726 45.7358L275.421 46.0678L275.32 45.6282C275.023 44.3328 273.966 43.0585 272.252 41.8898C267.107 38.3778 256.169 35.9147 243.526 35.9184V35.6809ZM235.388 81.8471L235.174 81.7615H235.405L235.388 81.8471L235.174 81.7615L235.333 81.5941L235.405 81.7615H235.174L235.333 81.5941L235.196 81.7382L235.252 81.5446L235.333 81.5941L235.196 81.7382L235.252 81.5446L235.26 81.546C235.333 81.56 235.579 81.5899 236.068 81.6862L236.436 81.7587L236.213 82.0608L236.158 82.289L236.178 82.4593L236.186 82.4892L236.055 82.5486L236.167 82.4593L236.186 82.4892L236.055 82.5486L236.167 82.4593L235.99 82.5982V82.3751C236.125 82.3854 236.152 82.4462 236.167 82.4593L235.99 82.5982V82.3751C236.425 82.3737 236.684 82.341 236.829 82.34C236.873 82.3475 236.888 82.3204 237.012 82.3877L237.016 82.3891H237.015C237.366 82.6445 237.462 83.0223 237.61 83.2711C237.767 83.5241 237.864 83.663 238.291 83.6756C238.618 83.677 239.143 83.5526 239.94 83.2L240.042 83.1542L240.142 83.2038C240.616 83.4591 240.929 84.1456 240.94 85.0687C240.94 85.549 240.844 86.0948 240.61 86.6747C240.216 87.6464 239.403 89.0681 238.519 90.0174L238.346 89.8551L238.556 89.7438C238.6 89.8411 238.787 89.9823 239.09 90.0759C239.392 90.1717 239.794 90.2274 240.241 90.2274C240.853 90.2274 241.545 90.1222 242.181 89.8851L242.264 90.1081L242.175 89.8874C243.458 89.3716 244.321 88.2141 245.334 87.0207C246.344 85.8329 247.521 84.6161 249.458 84.1143L249.517 84.3434L249.442 84.5698C247.272 83.8393 246.008 83.0064 245.277 82.2114C244.546 81.4178 244.364 80.656 244.365 80.1323C244.367 79.7001 244.484 79.4308 244.492 79.4097L244.592 79.1853L244.813 79.2919C244.981 79.3747 245.126 79.4041 245.245 79.4041C245.445 79.4032 245.589 79.3242 245.698 79.2063C245.805 79.0894 245.864 78.9299 245.862 78.8088L245.854 78.7363L245.8 78.4539H246.088C246.441 78.4473 246.638 78.228 246.645 77.9399C246.645 77.7949 246.595 77.6663 246.525 77.5822L246.294 77.4578V77.2202L246.358 77.4484L246.102 77.52L245.815 77.6004L245.801 77.302L245.795 77.0028C245.812 72.7088 249.63 66.6972 253.288 63.6916L254.047 63.0715L253.656 63.9703C252.105 67.5413 251.798 69.7514 251.798 70.9374C251.798 71.3381 251.833 71.622 251.866 71.8025L251.912 71.997L251.926 72.0382L251.928 72.0424L251.804 72.0929L251.925 72.0382L251.928 72.0424L251.804 72.0929L251.925 72.0382L251.716 72.1331L251.898 71.9919L251.925 72.0387L251.716 72.1331L251.898 71.9919L251.902 71.9994L251.907 72.0045L251.716 72.1331L251.795 71.9166L251.907 72.0045L251.716 72.1331L251.795 71.9166L251.742 72.0616L251.777 71.9115L251.795 71.9161L251.742 72.0616L251.777 71.9115C251.792 71.9161 252.072 71.9475 252.429 71.9694C252.795 71.9928 253.27 72.0125 253.761 72.0125C254.004 72.0125 254.25 72.0073 254.489 71.9956L254.501 72.2327L254.272 72.2991C254.228 72.1495 253.996 71.4092 253.997 69.4727L253.999 69.1874C254.04 66.5546 255.537 64.1041 255.527 61.6344L255.526 61.5334C255.509 60.4335 255.251 59.7367 254.913 59.3256C254.576 58.9155 254.158 58.764 253.737 58.7612C253.124 58.764 252.822 58.995 252.693 59.118L252.559 59.248L252.402 59.1507C252.306 59.0896 252.194 59.0572 252.08 59.0572C251.844 59.0572 251.641 59.191 251.537 59.3855L251.397 59.6474L251.172 59.4542C250.612 58.9701 250.009 58.5388 249.37 58.1659C249.19 58.0618 249.007 57.964 248.821 57.8727C248.691 57.8105 248.626 57.7847 248.626 57.7838L248.716 57.564L248.907 57.7043C246.368 61.1663 244.739 62.204 241.867 64.2869C239.815 65.7773 238.052 67.4674 236.806 68.7838C236.305 69.3107 235.819 69.8514 235.348 70.4052C235.009 70.805 234.829 71.037 234.829 71.037L234.61 71.3185L234.435 71.0084C234.329 70.8256 234.161 70.7194 233.978 70.7194C233.698 70.7204 233.432 70.9893 233.43 71.3732C233.43 71.6337 233.559 71.8516 233.729 71.954L234.451 72.3936H233.606L233.488 72.4652L233.411 72.7139L233.489 72.9487L233.621 73.0217H233.952L233.847 73.334C233.645 73.9345 233.564 74.4316 233.564 74.8572C233.566 75.9295 234.072 76.5861 234.625 77.3437L234.434 77.484L234.62 77.3371C235.17 78.04 235.339 78.5329 235.341 78.9014C235.341 79.1362 235.264 79.3097 235.211 79.4018L235.208 79.4069L235.209 79.4046C235.063 79.6548 234.542 80.3446 234.423 80.5045L234.234 80.3605L234.458 80.4372L234.401 80.6046L234.177 80.5279L234.374 80.3955C234.484 80.5653 234.742 80.7173 234.978 80.8071C235.096 80.8538 235.207 80.8856 235.286 80.9067L235.409 80.9347L235.666 80.9829L235.594 81.2336C235.562 81.3449 235.47 81.6161 235.392 81.8378L234.943 81.6797C235.02 81.4655 235.116 81.184 235.138 81.1036L235.366 81.1686L235.323 81.4024C235.314 81.3996 235.085 81.358 234.806 81.249C234.53 81.1386 234.193 80.9703 233.98 80.6598L233.915 80.563L234.01 80.2838L234.021 80.2478L234.044 80.2164C234.156 80.0724 234.694 79.3513 234.797 79.1689L235.003 79.2863L234.795 79.1712C234.828 79.1104 234.864 79.0403 234.865 78.9014C234.867 78.6886 234.762 78.2864 234.247 77.6303L234.243 77.6247L234.242 77.6238C233.699 76.883 233.088 76.0969 233.09 74.8572C233.09 74.3708 233.182 73.8218 233.397 73.1839L233.621 73.2588V73.4963C233.215 73.4884 232.938 73.1227 232.937 72.7139C232.937 72.5105 232.999 72.3211 233.113 72.1747C233.224 72.0279 233.401 71.9189 233.606 71.9189V72.1565L233.483 72.3585C233.16 72.1603 232.956 71.7894 232.955 71.3732C232.956 70.7713 233.39 70.2499 233.978 70.2443C234.353 70.2443 234.674 70.465 234.847 70.7751L234.641 70.892L234.454 70.7466C234.462 70.7363 237.419 66.9329 241.587 63.903C244.479 61.8032 246.013 60.8418 248.525 57.4242L248.634 57.2745L248.805 57.3447C248.822 57.3512 250.035 57.8497 251.481 59.0937L251.327 59.2737L251.117 59.162C251.209 58.9871 251.348 58.8408 251.517 58.7387C251.687 58.6365 251.881 58.5824 252.079 58.5821C252.29 58.5821 252.488 58.6447 252.652 58.7458L252.527 58.9483L252.361 58.778C252.555 58.5849 252.998 58.2856 253.737 58.287C254.034 58.285 254.327 58.3504 254.594 58.4785C254.862 58.6065 255.097 58.7937 255.282 59.0259C255.708 59.5496 255.982 60.3582 256 61.5269L256.002 61.6344C255.99 64.286 254.49 66.7397 254.473 69.1926L254.472 69.4731C254.473 71.3835 254.692 72.0373 254.729 72.1668L254.813 72.4563L254.512 72.4703C254.262 72.4817 254.012 72.4874 253.761 72.4871C253.224 72.4871 252.711 72.4638 252.328 72.439C252.137 72.4263 251.978 72.4118 251.863 72.4002L251.722 72.3833L251.669 72.373L251.633 72.3627L251.512 72.2692L251.71 72.1369L251.521 72.2818L251.493 72.2327C251.459 72.1551 251.326 71.7726 251.323 70.9374C251.323 69.6686 251.651 67.3963 253.221 63.7809L253.439 63.8759L253.589 64.0601C250.028 66.9549 246.254 72.9735 246.269 77.0023L246.276 77.281L246.038 77.2918L245.975 77.0631L246.231 76.992L246.262 76.9826H246.294C246.79 76.9934 247.117 77.447 247.119 77.9399C247.119 78.2097 247.013 78.4627 246.826 78.6419C246.64 78.8224 246.38 78.9285 246.088 78.9285V78.691L246.321 78.6456L246.337 78.8093C246.332 79.075 246.229 79.3295 246.049 79.5248C245.865 79.7305 245.582 79.8802 245.244 79.8793C245.043 79.8793 244.828 79.8278 244.605 79.7198L244.709 79.5056L244.925 79.6015L244.917 79.6277C244.893 79.6927 244.84 79.8741 244.84 80.1323C244.843 80.5513 244.972 81.1751 245.627 81.8911C246.281 82.6056 247.473 83.4072 249.593 84.1194L250.35 84.3719L249.577 84.573C247.783 85.0416 246.697 86.1537 245.696 87.3284C244.696 88.4985 243.798 89.7382 242.353 90.3284L242.35 90.3298L242.347 90.3312C241.672 90.5762 240.959 90.7017 240.241 90.702C239.756 90.702 239.31 90.6427 238.947 90.5285C238.587 90.4102 238.291 90.248 238.135 89.9669L238.056 89.8163L238.172 89.6929C238.995 88.8137 239.804 87.4075 240.169 86.4969C240.382 85.9718 240.465 85.4868 240.465 85.0687C240.474 84.2635 240.13 83.7098 239.929 83.6293L240.036 83.4165L240.132 83.6331C239.304 83.9988 238.732 84.1494 238.291 84.1508C237.702 84.1634 237.358 83.8225 237.195 83.5035C237.024 83.1804 236.921 82.8937 236.743 82.7787L236.878 82.5837L236.745 82.7796L236.857 82.6173L236.83 82.8147L236.745 82.7796L236.857 82.6173L236.83 82.8147H236.829C236.75 82.8133 236.44 82.8484 235.99 82.8498C235.85 82.839 235.816 82.7731 235.793 82.7511L235.71 82.542L235.684 82.2895C235.685 82.1338 235.71 81.9467 235.832 81.7784L236.022 81.9196L235.977 82.1534C235.641 82.087 235.432 82.0543 235.304 82.0337L235.157 82.0103L235.082 81.9869L235.004 81.9364L234.93 81.7615L234.947 81.6703L235.388 81.8471ZM252.373 60.1997C252.57 60.0935 252.698 59.899 252.698 59.6708H252.935L252.701 59.7068L252.665 59.48L252.644 59.3373L252.76 59.2518C252.947 59.1129 253.173 59.037 253.406 59.0352C253.768 59.0352 254.087 59.2307 254.304 59.5136C254.522 59.798 254.653 60.1754 254.654 60.5892V60.5981C254.654 60.9016 254.587 61.5231 254.23 62.5435L254.062 63.0238L253.801 62.588C253.372 61.8671 252.872 61.1905 252.309 60.5682L252.661 60.2492C253.244 60.8954 253.763 61.5971 254.209 62.3443L254.005 62.4659L253.781 62.3883C254.125 61.4062 254.179 60.8315 254.179 60.5981V60.5878L254.267 60.5902H254.179V60.5878L254.267 60.5902H254.179C254.179 60.2778 254.076 59.9963 253.928 59.8031C253.777 59.6095 253.591 59.5099 253.406 59.5099C253.275 59.5099 253.153 59.5539 253.04 59.6357L252.9 59.444L253.135 59.4075L253.17 59.6343L253.172 59.6525V59.6708C253.172 60.0846 252.935 60.4386 252.597 60.6178L252.374 60.1997H252.373Z" fill="white" fill-opacity="0.23"/>
<path fill-rule="evenodd" clip-rule="evenodd" d="M266.389 80.2861C267.151 79.1226 267.894 77.9679 268.617 76.6894C273.7 67.6848 277.78 59.4795 279.029 48.3022L279.044 48.1689L279.166 48.1128C283.531 46.1141 288.631 44.5213 292.497 44.5189C294.19 44.5189 295.656 44.8238 296.722 45.5711C297.79 46.3166 298.417 47.5212 298.412 49.1861C298.404 52.7477 295.812 57.3615 290.719 62.6328C285.623 67.9027 278.005 73.819 267.885 79.9073C257.907 85.9119 251.188 91.0439 246.972 95.0895C244.865 97.1121 243.382 98.8629 242.432 100.308C241.482 101.753 241.071 102.897 241.074 103.667C241.077 104.155 241.224 104.481 241.486 104.706C241.748 104.932 242.157 105.064 242.717 105.064C243.195 105.064 243.493 104.988 243.706 104.857C244.075 104.639 244.278 104.163 244.612 103.368C245.112 102.183 245.921 100.395 248.305 98.06C250.688 95.7217 254.643 92.8209 261.46 89.3411C272.956 83.4731 283.817 77.3324 291.789 70.6497C299.766 63.9633 304.829 56.7559 304.826 48.7549C304.822 44.6111 303.459 42.0507 301.389 40.4901C299.315 38.931 296.488 38.3745 293.55 38.3759C290.224 38.3745 286.767 39.0853 284.147 39.7985C282.837 40.1539 281.735 40.5107 280.962 40.7768C280.189 41.0438 279.75 41.2201 279.748 41.2201L279.423 41.3501V40.9994C279.423 39.1396 278.458 37.3471 276.66 35.6883C271.269 30.7009 258.454 27.135 243.526 27.1416C233.573 27.1416 224.563 28.7176 218.061 31.2536C214.811 32.5219 212.188 34.0305 210.392 35.6883C208.594 37.3471 207.629 39.1396 207.629 40.9999C207.631 56.1433 212.309 65.8339 218.435 76.6894C220.343 80.0681 222.41 82.578 224.522 86.7106C226.858 91.288 226.564 94.2996 227.756 97.4698C228.573 99.6645 230.671 101.571 233.496 102.922C236.32 104.272 239.862 105.064 243.526 105.064V105.539C239.793 105.539 236.19 104.735 233.292 103.35C230.396 101.964 228.196 99.9965 227.311 97.6358C226.081 94.3281 226.389 91.4021 224.1 86.9257C222.012 82.8399 219.956 80.3459 218.023 76.9227C211.887 66.0593 207.152 56.2457 207.154 40.9999C207.154 38.9675 208.211 37.0515 210.07 35.3395C215.65 30.2065 228.519 26.6735 243.526 26.6669C253.531 26.6683 262.587 28.2466 269.163 30.8112C272.452 32.0954 275.122 33.6232 276.982 35.3395C278.841 37.0511 279.897 38.9675 279.897 40.9999H279.66L279.572 40.7791C279.586 40.7754 286.765 37.9036 293.55 37.9012C296.544 37.9012 299.473 38.4601 301.674 40.1113C303.877 41.7621 305.305 44.511 305.301 48.7549C305.298 56.9719 300.115 64.2902 292.094 71.0131C284.069 77.7383 273.183 83.8879 261.675 89.7639C251.33 95.0455 247.664 98.9579 246.077 101.521C245.281 102.806 245.006 103.753 244.653 104.438C244.477 104.78 244.269 105.068 243.954 105.261C243.639 105.455 243.242 105.539 242.717 105.539C242.086 105.539 241.557 105.391 241.177 105.067C240.796 104.744 240.597 104.252 240.6 103.667C240.603 102.736 241.06 101.537 242.035 100.048C244.967 95.5903 252.638 88.5302 267.641 79.5C277.734 73.4285 285.322 67.5305 290.378 62.3031C295.438 57.0786 297.945 52.5129 297.938 49.1856C297.932 47.633 297.386 46.6238 296.449 45.9588C295.508 45.2948 294.135 44.9922 292.497 44.9936C288.757 44.9908 283.684 46.5616 279.363 48.5449L279.265 48.3284L279.5 48.3541C278.244 59.6244 274.119 67.9107 269.029 76.9227C268.299 78.2172 267.549 79.3807 266.787 80.5456L266.389 80.2861Z" fill="white" fill-opacity="0.23"/>
<path fill-rule="evenodd" clip-rule="evenodd" d="M243.526 105.065C247.19 105.065 250.731 104.272 253.556 102.921C256.383 101.571 258.48 99.6641 259.299 97.4694C260.227 94.9908 260.253 92.6793 261.329 89.5166L261.778 89.6699C260.723 92.7569 260.702 95.0577 259.742 97.6354C258.858 99.9961 256.656 101.963 253.761 103.35C250.862 104.736 247.259 105.54 243.526 105.54V105.065ZM277.964 73.2111C275.95 72.5205 273.911 71.9048 271.851 71.3653L271.971 70.9065C274.043 71.4483 276.093 72.0674 278.118 72.7626L277.964 73.2115V73.2111Z" fill="white" fill-opacity="0.23"/>
<path fill-rule="evenodd" clip-rule="evenodd" d="M215.201 71.3657C205.797 73.8363 197.904 77.5008 192.379 81.9266C186.851 86.3548 183.7 91.5274 183.7 97.0321C183.692 105.004 190.338 113.147 201.171 119.284C212 125.419 226.98 129.543 243.527 129.543C260.072 129.543 275.053 125.419 285.881 119.284C296.714 113.147 303.36 105.004 303.352 97.0321C303.36 88.881 296.418 81.4361 285.138 76.1114L285.342 75.6821C296.689 81.0418 303.818 88.5859 303.827 97.0321C303.818 105.284 297.019 113.514 286.114 119.696C275.203 125.879 260.152 130.017 243.527 130.017C226.901 130.017 211.85 125.879 200.938 119.696C190.034 113.514 183.234 105.284 183.225 97.0321C183.227 91.3357 186.486 86.0359 192.082 81.5553C197.681 77.0729 205.627 73.3902 215.081 70.9065L215.201 71.3657ZM276.971 73.9177C275.121 73.3156 273.251 72.7757 271.365 72.2987L271.482 71.8395C273.378 72.3191 275.257 72.8616 277.117 73.4659L276.971 73.9177Z" fill="white" fill-opacity="0.23"/>
<path fill-rule="evenodd" clip-rule="evenodd" d="M215.688 72.3C207.143 74.4633 199.892 77.5938 194.697 81.3668C189.5 85.1426 186.374 89.5474 186.001 94.2608C185.977 94.5807 185.964 94.9014 185.964 95.2223C185.954 102.288 192.215 108.845 202.586 113.625C212.949 118.404 227.371 121.392 243.526 121.392C259.683 121.392 274.103 118.404 284.466 113.625C294.839 108.844 301.1 102.287 301.09 95.2208C301.09 94.9028 301.076 94.5825 301.052 94.2608C300.52 87.4471 294.196 81.263 284.24 76.7282L284.438 76.2961C294.455 80.865 300.951 87.1221 301.525 94.2234C301.551 94.5577 301.564 94.8902 301.564 95.2208C301.554 102.596 295.101 109.242 284.666 114.056C274.22 118.871 259.741 121.866 243.526 121.867C227.311 121.866 212.833 118.872 202.388 114.056C191.953 109.244 185.5 102.598 185.489 95.2223C185.489 94.8902 185.502 94.5582 185.529 94.2234C185.92 89.3149 189.158 84.8026 194.418 80.9828C199.682 77.1603 206.982 74.0149 215.571 71.8394L215.688 72.3ZM277.456 41.3005H277.218C277.218 39.6025 276.317 37.9629 274.631 36.4403C269.574 31.869 257.541 28.5941 243.526 28.6006C234.182 28.6006 225.722 30.0466 219.62 32.3736C216.568 33.5371 214.107 34.9213 212.423 36.4403C210.736 37.9629 209.835 39.6025 209.835 41.3005C209.835 42.9981 210.736 44.6377 212.422 46.1603C217.48 50.7325 229.513 54.0065 243.526 54C252.87 54 261.33 52.554 267.432 50.227C270.485 49.0635 272.946 47.6793 274.631 46.1603C276.317 44.6377 277.218 42.9981 277.218 41.3005H277.693C277.693 43.1758 276.695 44.9388 274.948 46.512C269.703 51.2268 257.62 54.4686 243.526 54.4747C234.133 54.4747 225.628 53.0249 219.451 50.6703C216.362 49.4928 213.854 48.0889 212.104 46.512C210.357 44.9388 209.36 43.1758 209.36 41.3005C209.36 39.4248 210.357 37.6622 212.105 36.0886C217.35 31.3738 229.433 28.1325 243.526 28.1259C252.921 28.1259 261.426 29.5757 267.603 31.9303C270.691 33.1078 273.199 34.5126 274.948 36.0886C276.695 37.6618 277.693 39.4248 277.693 41.3005H277.456Z" fill="white" fill-opacity="0.23"/>
<path fill-rule="evenodd" clip-rule="evenodd" d="M246.78 44.4025C246.195 44.4984 245.604 44.5456 245.011 44.5437C243.663 44.54 242.374 44.3249 241.634 43.889C241.236 43.6515 240.981 43.3596 240.976 42.9953C240.985 42.5852 241.295 42.2831 241.737 42.0404C242.187 41.7968 242.818 41.6008 243.613 41.4647C244.491 41.3151 245.431 41.2449 246.358 41.2449C248.444 41.2496 250.45 41.5915 251.561 42.2494C252.166 42.6114 252.52 43.0365 252.525 43.5322C252.516 44.0901 252.081 44.5377 251.406 44.9057C250.722 45.2765 249.748 45.5814 248.517 45.7919C247.154 46.0238 245.692 46.1328 244.252 46.1328C241.007 46.1291 237.883 45.588 236.187 44.5816C235.26 44.0265 234.751 43.3938 234.747 42.6928C234.756 41.9057 235.384 41.2309 236.426 40.6632C237.475 40.095 238.985 39.6203 240.899 39.2944C243.021 38.9343 245.298 38.7627 247.542 38.7627C252.594 38.7664 257.467 39.6175 260.073 41.1701C261.506 42.0259 262.255 42.9846 262.258 44.0041C262.249 45.1521 261.317 46.181 259.706 47.0578C258.086 47.937 255.739 48.6763 252.759 49.1837C249.452 49.7449 245.902 50.0115 242.402 50.0115C234.524 50.0068 226.915 48.6726 222.887 46.2717L223.131 45.863C227.005 48.1862 234.583 49.5401 242.402 49.5363C245.878 49.5363 249.403 49.2717 252.679 48.7152C255.625 48.2148 257.93 47.4829 259.48 46.6411C261.038 45.797 261.793 44.858 261.784 44.0041C261.789 43.2455 261.205 42.4 259.829 41.5774C257.377 40.1043 252.534 39.2336 247.542 39.2373C245.322 39.2373 243.069 39.4076 240.978 39.763C239.099 40.0819 237.631 40.5486 236.651 41.0808C235.665 41.6149 235.213 42.1999 235.222 42.6928C235.217 43.1314 235.562 43.6529 236.431 44.1743C237.973 45.1016 241.067 45.6619 244.252 45.6581C245.668 45.6581 247.105 45.5506 248.438 45.3233C249.634 45.1213 250.567 44.8229 251.18 44.4895C251.803 44.1532 252.059 43.7941 252.05 43.5322C252.056 43.2984 251.865 42.9851 251.318 42.6577C250.359 42.0778 248.385 41.7163 246.357 41.7201C245.455 41.7201 244.54 41.7888 243.692 41.9328C242.933 42.0615 242.343 42.2509 241.963 42.458C241.574 42.6671 241.441 42.8808 241.451 42.9953C241.446 43.0978 241.539 43.2778 241.877 43.4803C242.464 43.8381 243.723 44.0728 245.011 44.0695C245.583 44.0695 246.164 44.0251 246.701 43.9339L246.78 44.4025Z" fill="white" fill-opacity="0.23"/>
<path fill-rule="evenodd" clip-rule="evenodd" d="M122.655 270.701C122.157 268.504 120.283 266.73 117.371 265.501C114.463 264.271 110.545 263.605 106.068 263.606C104.826 263.606 103.541 263.658 102.223 263.76L102.201 263.483L102.433 263.329C103.359 264.72 104.653 265.827 106.171 266.525L106.412 266.635L106.309 266.89L106.052 266.785L106.165 266.533C107.038 266.921 107.66 267.48 107.835 268.233C107.866 268.368 107.881 268.506 107.881 268.643C107.856 269.99 106.558 271.293 104.532 272.51C102.493 273.722 99.6715 274.818 96.462 275.55L96.3989 275.278V274.999H98.8779L96.4629 275.55C93.9984 276.111 91.6443 276.384 89.6166 276.384L89.3201 276.381L89.0451 276.376V276.095H89.3229L89.0451 276.1L89.0395 275.707L89.3178 275.704L89.0395 275.714C89.0325 275.559 89.0302 275.407 89.0302 275.254C89.0367 272.228 90.1385 269.904 90.1333 266.198C90.1333 265.841 90.124 265.471 90.102 265.085C89.9126 261.611 86.7448 254.003 83.6218 247.335C82.2447 244.4 80.822 241.487 79.354 238.597C78.7227 237.349 78.0804 236.107 77.4273 234.871L77.6738 234.739L77.6771 235.018C77.5288 235.02 77.381 235.021 77.2346 235.021C73.5954 235.021 70.3972 234.483 67.9799 233.461C65.5659 232.444 63.9034 230.925 63.4498 228.943L61.019 218.285L61.5614 218.16L63.9932 228.818C64.3865 230.555 65.8713 231.966 68.1964 232.949C70.516 233.93 73.6506 234.465 77.2346 234.463C77.3801 234.463 77.5255 234.462 77.671 234.461L77.8412 234.46L77.9207 234.608C77.9216 234.612 80.9978 240.405 84.1269 247.098C87.2559 253.804 90.4387 261.36 90.658 265.053C90.68 265.449 90.6917 265.829 90.6917 266.198C90.687 270.025 89.5815 272.385 89.5876 275.254C89.5876 275.399 89.5909 275.545 89.5969 275.693V275.697L89.6021 276.091V276.103H89.3229L89.3276 275.824L89.6171 275.826C91.5952 275.826 93.9119 275.559 96.3386 275.006L96.4012 275.278V275.557H93.9227L96.3367 275.006C99.4975 274.286 102.276 273.204 104.246 272.033C106.229 270.867 107.347 269.579 107.323 268.643L107.29 268.358C107.178 267.85 106.729 267.397 105.937 267.04L105.692 266.93L105.796 266.674L106.054 266.779L105.938 267.033C104.326 266.29 102.952 265.115 101.968 263.638L101.706 263.243L102.178 263.206C103.51 263.099 104.811 263.049 106.068 263.049C110.6 263.049 114.582 263.719 117.587 264.987C120.588 266.253 122.64 268.136 123.197 270.576L122.655 270.701ZM99.1066 206.01L99.3783 205.949C99.4205 206.133 99.4415 206.321 99.4409 206.51C99.4162 208.368 97.5727 210.252 94.641 212.004C91.6995 213.751 87.6132 215.335 82.9671 216.395C79.3807 217.213 75.9598 217.605 73.0188 217.605C70.4837 217.604 68.3058 217.314 66.6747 216.744C65.0534 216.174 63.9333 215.311 63.6499 214.099C63.6085 213.914 63.5878 213.726 63.5882 213.536C63.6125 211.68 65.4555 209.795 68.3863 208.042C71.3283 206.296 75.4141 204.713 80.0606 203.652C83.6456 202.834 87.066 202.443 90.0066 202.443C92.5427 202.443 94.7228 202.732 96.3526 203.303C97.9753 203.872 99.0963 204.737 99.3783 205.949L99.1066 206.01L98.8349 206.072C98.631 205.153 97.7158 204.372 96.1674 203.828C94.6288 203.288 92.5001 203 90.0066 203.001C87.1156 203.001 83.7312 203.386 80.1851 204.196C75.5881 205.244 71.5457 206.813 68.6706 208.521C65.7838 210.222 64.1204 212.09 64.1457 213.536C64.1457 213.685 64.1615 213.83 64.1948 213.974C64.3986 214.895 65.3115 215.675 66.8599 216.218C68.3998 216.758 70.5262 217.048 73.0188 217.048C75.9107 217.048 79.2951 216.661 82.8436 215.851C87.4397 214.803 91.4825 213.233 94.3576 211.526C97.2444 209.825 98.9078 207.958 98.8826 206.51C98.8826 206.361 98.8671 206.216 98.8349 206.072L99.1061 206.01H99.1066Z" fill="white" fill-opacity="0.23"/>
<path fill-rule="evenodd" clip-rule="evenodd" d="M103.303 208.644L103.575 208.582C103.655 208.936 103.695 209.296 103.695 209.659C103.685 212.334 101.585 215.081 98.1745 217.492C94.756 219.9 89.9883 221.974 84.5243 223.221C81.1086 223.999 77.7977 224.369 74.7888 224.369C71.1515 224.369 67.9551 223.832 65.5378 222.81C63.1262 221.793 61.4646 220.272 61.0101 218.29C60.9299 217.938 60.8896 217.577 60.8899 217.216C60.9002 214.539 62.9985 211.793 66.41 209.382C69.8285 206.974 74.5962 204.899 80.0606 203.651C83.4745 202.873 86.7859 202.503 89.7947 202.503C93.4321 202.504 96.6285 203.043 99.0467 204.062C101.46 205.082 103.121 206.601 103.575 208.582L103.303 208.644L103.032 208.705C102.637 206.97 101.154 205.56 98.8302 204.577C96.5106 203.594 93.3769 203.06 89.7952 203.06C86.8308 203.06 83.5605 203.425 80.185 204.196C74.7823 205.428 70.0735 207.481 66.7322 209.839C63.382 212.194 61.4365 214.853 61.4468 217.216C61.4468 217.537 61.4833 217.854 61.5544 218.167C61.9477 219.902 63.4301 221.313 65.7553 222.297C68.0748 223.278 71.2067 223.812 74.7888 223.812C77.7528 223.812 81.0254 223.447 84.4014 222.676C89.8027 221.445 94.5119 219.393 97.8537 217.036C101.203 214.679 103.148 212.02 103.138 209.659C103.138 209.338 103.102 209.018 103.031 208.705L103.303 208.644ZM70.8559 282.977L73.4607 294.397C73.9602 296.594 75.8326 298.367 78.7447 299.598C81.6534 300.827 85.5705 301.495 90.0477 301.495C93.7515 301.495 97.8388 301.038 102.056 300.076C108.806 298.537 114.691 295.973 118.87 293.027C123.059 290.078 125.505 286.748 125.495 283.762C125.495 283.357 125.45 282.953 125.361 282.558L122.75 271.114L123.292 270.989L125.905 282.434C126.003 282.871 126.052 283.316 126.052 283.762C126.043 287.063 123.443 290.479 119.193 293.48C114.935 296.481 108.993 299.066 102.18 300.621C97.9234 301.591 93.7978 302.052 90.0477 302.052C85.5153 302.052 81.5337 301.381 78.5282 300.113C75.5287 298.847 73.4762 296.964 72.9178 294.522L70.3134 283.102L70.8559 282.977ZM96.3451 275C99.5059 274.279 102.285 273.197 104.254 272.025C106.238 270.859 107.357 269.572 107.332 268.635L107.299 268.35C107.187 267.843 106.739 267.391 105.944 267.032L105.626 266.89L105.84 266.605L106.062 266.773L105.946 267.026C103.342 265.827 101.3 263.475 100.613 260.462C100.478 259.871 100.428 259.279 100.428 258.698C100.428 257.662 100.588 256.661 100.731 255.765V255.761L100.732 255.755C100.777 255.532 101.103 253.221 101.559 249.93C102.246 244.982 103.234 237.774 104.049 231.803C104.457 228.818 104.822 226.141 105.085 224.212L105.509 221.098L106.061 221.172C106.061 221.172 104.915 229.59 103.746 238.133C103.161 242.405 102.57 246.708 102.111 250.005C101.653 253.31 101.333 255.585 101.279 255.864L101.006 255.81L101.28 255.854C101.138 256.748 100.986 257.719 100.986 258.697C100.986 259.246 101.033 259.796 101.158 260.338C101.805 263.176 103.726 265.389 106.178 266.52L106.492 266.663L106.282 266.945L106.058 266.778L106.172 266.523C107.046 266.916 107.669 267.473 107.844 268.227C107.874 268.361 107.889 268.498 107.889 268.635C107.865 269.982 106.566 271.285 104.54 272.504C102.502 273.716 99.6794 274.811 96.47 275.543L96.3451 275ZM64.7134 230.403L67.6493 234.846C70.2975 238.852 74.2843 244.882 77.6653 249.985C79.3568 252.538 80.8959 254.858 82.0421 256.578C83.1845 258.295 83.9454 259.43 84.0459 259.564L84.0483 259.566L84.0516 259.571C84.8597 260.734 85.8193 262.11 86.1966 263.751C86.3589 264.465 86.437 265.18 86.437 265.885C86.437 268.145 85.6289 270.291 84.2377 271.977L84.023 271.799L84.2194 271.602L84.2251 271.606L84.407 271.789L84.2405 271.984C83.7817 272.527 83.5577 273.038 83.56 273.474L83.5904 273.758L83.048 273.883C83.0179 273.749 83.0027 273.612 83.0026 273.474C83.0036 272.847 83.308 272.226 83.8149 271.625L84.0282 271.804L83.8308 272.002L83.8257 271.997L83.6456 271.817L83.8065 271.621C85.1434 270.008 85.8763 267.98 85.8791 265.885C85.8791 265.221 85.8066 264.549 85.6518 263.874C85.3091 262.372 84.4018 261.049 83.5942 259.89L83.8233 259.73L83.5998 259.897C83.4305 259.67 82.1557 257.758 80.3094 254.979C74.7837 246.659 64.2485 230.711 64.2485 230.711L64.7134 230.403Z" fill="white" fill-opacity="0.23"/>
<path fill-rule="evenodd" clip-rule="evenodd" d="M86.944 276.202C85.8923 276.042 85.0061 275.78 84.3312 275.404C83.6625 275.031 83.1864 274.526 83.0415 273.889V273.891C83.0103 273.757 82.9946 273.619 82.9947 273.481C82.9966 272.852 83.3015 272.232 83.8056 271.631L84.0198 271.811L83.821 272.008L83.8164 272.004L83.6386 271.824L83.7995 271.629C84.8631 270.34 85.549 268.782 85.7814 267.127L86.0573 267.166L86.1579 267.426C81.494 269.231 77.592 271.518 74.8698 273.953C72.142 276.391 70.6165 278.971 70.6217 281.336C70.6217 281.744 70.6647 282.145 70.7545 282.539L70.212 282.663C70.1125 282.228 70.0626 281.783 70.0633 281.336C70.068 278.723 71.7099 276.033 74.4975 273.538C77.288 271.043 81.2429 268.732 85.9572 266.907L86.3997 266.735L86.3337 267.204C86.0872 268.961 85.3588 270.616 84.2293 271.984L84.0146 271.806L84.211 271.61L84.2167 271.615L84.3962 271.796L84.233 271.99C83.7743 272.534 83.5503 273.044 83.5526 273.481L83.5839 273.765V273.767C83.6821 274.197 84.0137 274.585 84.6043 274.918C85.1908 275.245 86.0213 275.497 87.0277 275.651L86.944 276.202ZM113.295 282.98C113.962 282.603 114.616 282.204 115.257 281.785L115.563 282.253C114.912 282.678 114.248 283.083 113.57 283.465L113.295 282.98ZM70.7559 282.54C71.2558 284.737 73.1283 286.511 76.0412 287.743C78.9486 288.971 82.867 289.638 87.3462 289.638C91.0485 289.638 95.1353 289.182 99.3516 288.221C103.018 287.384 106.429 286.245 109.45 284.908L109.675 285.418C106.619 286.771 103.175 287.92 99.476 288.765C95.22 289.735 91.0944 290.196 87.3462 290.196C82.8118 290.195 78.8294 289.525 75.8233 288.255C72.8238 286.989 70.7718 285.106 70.2134 282.665L70.7559 282.54ZM117.884 279.856C121.02 277.256 122.796 274.456 122.791 271.904C122.791 271.499 122.746 271.098 122.656 270.702L123.199 270.579C123.299 271.015 123.348 271.457 123.348 271.904C123.342 274.722 121.435 277.628 118.24 280.286L117.884 279.856V279.856ZM103.583 208.575L106.014 219.233C106.094 219.587 106.134 219.948 106.134 220.31C106.124 222.985 104.025 225.733 100.614 228.143C97.1958 230.551 92.4281 232.625 86.9646 233.872C85.3996 234.229 83.8178 234.507 82.225 234.705L82.1581 234.152C83.6807 233.963 85.2492 233.691 86.8402 233.329C92.2415 232.097 96.9512 230.043 100.293 227.687C103.642 225.331 105.587 222.671 105.577 220.31C105.577 219.988 105.542 219.671 105.471 219.357L103.04 208.699L103.583 208.575Z" fill="white" fill-opacity="0.23"/>
<path fill-rule="evenodd" clip-rule="evenodd" d="M11.7849 111.425L11.5557 111.146C14.1428 109.047 19.0521 107.352 25.3729 106.248L25.4346 106.605L25.386 106.963C19.6432 106.163 15.0084 105.007 12.0627 103.605L12.2184 103.278L12.579 103.287C12.5434 104.793 12.4401 107.69 12.1454 111.454L11.7854 111.426L11.5557 111.146L11.7849 111.425L11.4243 111.397C11.7189 107.648 11.8223 104.765 11.8564 103.269L11.8695 102.711L12.3746 102.952C15.1959 104.301 19.7878 105.458 25.4837 106.246L27.7757 106.565L25.4968 106.961C19.2434 108.042 14.3981 109.753 12.014 111.705L11.3589 112.238L11.4243 111.397L11.7849 111.425ZM72.5572 112.715H72.1948C72.1948 108.793 72.0994 105.542 72.0802 104.316L72.4426 104.311L72.5572 104.654C69.2837 105.745 64.8564 106.635 59.6697 107.241L59.6281 106.883L59.6997 106.527C63.0714 107.202 65.9643 108.061 68.2109 109.066C70.4565 110.074 72.069 111.213 72.8668 112.529L72.5572 112.715L72.2476 112.901C71.5943 111.803 70.0964 110.697 67.9167 109.726C65.7389 108.752 62.8909 107.903 59.557 107.237L57.3193 106.788L59.5874 106.524C64.7362 105.921 69.1274 105.035 72.328 103.967L72.7976 103.811L72.8032 104.305C72.82 105.519 72.9177 108.782 72.9177 112.715V114.02L72.2476 112.901L72.5572 112.715ZM16.922 90.7146L16.5614 90.7426C15.9493 83.0437 12.9213 68.4143 9.28484 58.4193C6.95922 52.0125 2.97906 44.148 2.50627 37.8535C2.47507 37.4275 2.45947 37.0006 2.45951 36.5735C2.46886 28.9382 7.584 24.2229 10.8468 22.8106L10.9894 23.1431L10.6331 23.2035L10.5676 22.8148L10.9239 22.7545L10.9445 23.1146C6.42377 23.3718 2.6765 24.1364 -0.00406218 25.8223C-2.68088 27.5096 -4.34384 30.0835 -4.76659 34.1609C-4.82879 34.7747 -4.86 35.3912 -4.86012 36.0081C-4.86807 41.2533 -2.54012 47.3884 3.33588 62.8479L2.99777 62.9755L3.32653 62.8273C3.33401 62.8441 9.59676 76.6893 11.9902 92.6142L11.6334 92.6689L11.4627 92.3495C12.8348 91.6195 14.6464 90.9568 16.828 90.3652L16.9215 90.7146L17.0155 91.0634C14.8718 91.6433 13.1013 92.2952 11.8022 92.9878L11.3518 93.2282L11.277 92.7231C10.0883 84.8199 7.9352 77.4137 6.08051 71.9885C5.33678 69.8112 4.53541 67.6539 3.67727 65.5191C3.05623 63.9801 2.66948 63.1275 2.66948 63.1238L2.66387 63.1144L2.66013 63.1032C-3.20652 47.6493 -5.57562 41.4918 -5.58311 36.0081C-5.58311 35.3628 -5.54944 34.7258 -5.48537 34.0898C-5.06121 29.8487 -3.25001 26.997 -0.387066 25.2101C2.47027 23.419 6.32649 22.6568 10.9034 22.394L11.226 22.3753L11.3462 23.0833L11.393 23.3629L11.132 23.4752C8.10963 24.7766 3.1708 29.2932 3.18015 36.5735C3.18015 36.9734 3.19512 37.3826 3.22692 37.8011C3.66651 43.8553 7.60879 51.7155 9.96433 58.1719C13.6307 68.2581 16.6592 82.8861 17.2821 90.6861L17.3045 90.9849L17.0155 91.0634L16.922 90.7146Z" fill="white" fill-opacity="0.23"/>
<path fill-rule="evenodd" clip-rule="evenodd" d="M33.7228 88.2173L33.3627 88.2434C33.0115 83.2742 32.8932 78.4401 32.8932 73.7805C32.895 64.6323 33.3421 56.1567 33.3421 48.6626C33.3421 46.7457 33.3136 44.891 33.2402 43.1074C32.7936 32.2042 24.1879 25.3934 16.3562 25.3952C15.868 25.3952 15.3835 25.4214 14.9051 25.4743C13.3918 25.6394 11.1634 26.5349 9.34615 28.2848C7.52887 30.0357 6.10067 32.6228 6.09833 36.2442C6.09833 37.6238 6.30691 39.1558 6.78765 40.8473C7.69816 44.067 10.613 50.2339 13.5438 58.6235C16.4759 67.0188 19.4272 77.6648 20.4318 89.9368L20.0712 89.9667L19.9978 89.6136C23.8634 88.8084 28.5305 88.2 33.6985 87.8567L33.7228 88.2168L33.7471 88.5773C28.6053 88.9211 23.9686 89.5253 20.1446 90.3193L19.7443 90.404L19.7106 89.9967C18.7141 77.8037 15.7815 67.2194 12.8624 58.8616C9.94147 50.4967 7.04298 44.386 6.09272 41.046C5.59561 39.2947 5.37582 37.6972 5.37582 36.2442C5.37207 32.4259 6.90409 29.627 8.8467 27.7625C10.7921 25.8984 13.1271 24.9486 14.8261 24.7569C15.3311 24.7008 15.8418 24.6727 16.3562 24.6727C24.5915 24.6746 33.4918 31.7875 33.9613 43.0775C34.0361 44.8742 34.0642 46.7382 34.0642 48.6626C34.0642 56.1847 33.6157 64.6553 33.6157 73.7805C33.6157 78.4289 33.7326 83.2438 34.0833 88.1906L34.1095 88.553L33.7471 88.5773L33.7228 88.2173Z" fill="white" fill-opacity="0.23"/>
<path fill-rule="evenodd" clip-rule="evenodd" d="M36.7191 49.6541L37.0791 49.6709C36.8261 54.9385 36.734 60.3866 36.734 65.4985C36.734 75.6885 37.0965 84.5491 37.2597 88.0242L36.8996 88.041L36.8823 87.6809C39.0657 87.5827 41.3203 87.5322 43.6314 87.5322C44.9586 87.5322 46.2633 87.549 47.5531 87.5827L47.5437 87.9433L47.1832 87.9302C47.6354 75.3523 49.4134 65.7309 50.9131 51.2404C51.0206 50.2258 51.0746 49.2063 51.0749 48.1861C51.0712 39.6703 47.1701 33.53 41.6771 29.4334C36.1859 25.3429 29.0936 23.3306 22.8046 23.1786L22.814 22.8186L23.1727 22.8691L23.1086 23.325L22.7499 23.2745L22.872 22.9345C28.6825 24.9959 37.1563 31.1118 37.1376 47.2812C37.1376 48.0547 37.1189 48.8507 37.0796 49.6709L36.7191 49.6541L36.359 49.6373C36.3964 48.8282 36.417 48.0435 36.417 47.2812C36.3983 31.3807 28.2261 25.6417 22.6279 23.614L22.352 23.5149L22.4553 22.7676L22.5007 22.4482L22.8234 22.4575C29.2493 22.6156 36.4675 24.6559 42.1092 28.8554C47.7499 33.0493 51.8035 39.4397 51.7974 48.1861C51.7974 49.1977 51.7451 50.2415 51.6324 51.3156C50.1265 65.8361 48.3541 75.4388 47.9038 87.9564L47.8907 88.315L47.5344 88.3038C46.2336 88.2713 44.9325 88.2549 43.6314 88.2547C41.3315 88.2547 39.0882 88.3038 36.9159 88.4016L36.5558 88.4184L36.539 88.0578C36.3753 84.5753 36.0115 75.7054 36.0115 65.4985C36.0115 60.3773 36.1032 54.9203 36.3585 49.6373L36.7191 49.6541ZM55.3123 88.3468L55.0284 88.5723C53.6433 86.8172 52.6612 83.7662 52.6518 83.7494L52.9956 83.6372L53.3557 83.6727C53.2341 84.8816 53.1288 87.1511 53.0858 88.1799L52.7253 88.1649L52.7458 87.8048C53.6264 87.8568 54.4916 87.9189 55.3403 87.9863L55.3123 88.3468L55.2842 88.7069C54.4244 88.6379 53.5639 88.5774 52.7028 88.5255L52.3497 88.5044L52.3647 88.15C52.4082 87.1137 52.5111 84.8479 52.635 83.6012L52.8062 81.891L53.3393 83.524C53.3393 83.5259 53.5829 84.2713 53.9907 85.2267C54.3962 86.1807 54.9704 87.3391 55.5957 88.1214L56.112 88.7729L55.2842 88.7074L55.3123 88.3473V88.3468ZM13.0266 114.47L13.3441 114.301C13.5125 114.655 14.3332 115.29 15.6983 115.904C19.8019 117.785 28.755 119.9 40.9681 119.899H41.1243C50.4338 119.886 57.4658 118.769 62.2246 117.449C64.6035 116.79 66.4147 116.079 67.6503 115.434C68.2676 115.114 68.7408 114.81 69.0658 114.545C69.3904 114.284 69.5559 114.051 69.5802 113.955L69.9216 114.064L69.5653 114.105C69.569 114.06 69.4713 113.852 69.2085 113.604C68.2942 112.713 65.6543 111.312 61.1813 110.18C56.7059 109.04 50.3772 108.14 42.0124 108.14H41.8412C32.4003 108.153 25.4095 109.322 20.703 110.728C18.3508 111.43 16.5709 112.195 15.3471 112.895C14.1214 113.585 13.4662 114.259 13.3642 114.592L13.0266 114.47L13.3441 114.301L13.0266 114.469L12.6889 114.348C12.948 113.679 13.7042 113.02 14.9902 112.273C18.8465 110.069 27.5887 107.445 41.8412 107.422H42.0119C51.6314 107.422 58.5961 108.607 63.1954 109.994C65.4953 110.689 67.2018 111.434 68.3634 112.116C68.9433 112.457 69.3866 112.782 69.7056 113.088C70.0194 113.398 70.2293 113.677 70.2784 114.023L70.2859 114.1L70.2635 114.173C70.1489 114.507 69.894 114.789 69.518 115.101C68.2021 116.167 65.225 117.513 60.4976 118.63C55.7743 119.743 49.3208 120.603 41.1243 120.616H40.9681C32.7684 120.616 26.0267 119.674 21.1871 118.472C18.7656 117.871 16.8225 117.204 15.3994 116.555C13.9783 115.893 13.0794 115.297 12.7095 114.639L12.6361 114.498L12.6889 114.348L13.0266 114.469V114.47ZM9.27512 95.7044C9.27512 96.1304 9.46451 96.5695 9.88727 97.0353C11.3604 98.687 15.6468 100.283 21.6145 101.377C27.5864 102.487 35.2623 103.157 43.6314 103.157C53.1948 103.157 61.8542 102.282 68.1001 100.876C71.2203 100.176 73.7395 99.3366 75.4497 98.4265C76.3036 97.972 76.9532 97.5006 77.3741 97.0353C77.7963 96.5695 77.9858 96.1304 77.9858 95.7044H78.7087C78.7087 96.3558 78.4122 96.9717 77.9091 97.5216C76.146 99.4324 71.8133 100.957 65.7797 102.089C59.7498 103.208 52.0378 103.878 43.6318 103.88C34.0217 103.878 25.322 103.003 19.0031 101.582C15.8418 100.87 13.2777 100.024 11.4717 99.0644C10.5705 98.5841 9.855 98.0753 9.35228 97.5212C8.84909 96.9712 8.5526 96.3558 8.5526 95.7044H9.27512Z" fill="white" fill-opacity="0.23"/>
<path fill-rule="evenodd" clip-rule="evenodd" d="M12.3026 102.921C17.7171 105.544 29.7295 107.408 43.629 107.402C53.1938 107.402 61.8537 106.529 68.0996 105.123C71.2216 104.421 73.7409 103.584 75.4492 102.673C76.305 102.219 76.955 101.746 77.3754 101.282C77.7977 100.814 77.9871 100.377 77.9871 99.9491H78.7101C78.7101 100.602 78.4136 101.216 77.9104 101.768C76.1474 103.677 71.8146 105.202 65.7796 106.334C59.7493 107.454 52.0373 108.125 43.629 108.125C29.6528 108.119 17.6249 106.285 11.9893 103.572L12.3026 102.921Z" fill="white" fill-opacity="0.23"/>
<path fill-rule="evenodd" clip-rule="evenodd" d="M55.33 50.9214L55.6901 50.9294C55.6647 52.1577 55.5903 53.3845 55.467 54.6069L55.1083 54.5709L55.4684 54.6013L54.2712 68.9549L56.2536 70.4191L55.9889 80.8308L55.6288 80.8214L55.9889 80.7985C55.9889 80.8004 56.0114 81.174 56.1054 81.7806C56.2457 82.6874 56.5464 84.0898 57.1529 85.3941C57.759 86.7026 58.6601 87.8951 59.9728 88.4581L60.0345 88.4862L60.0869 88.5367L59.8335 88.7939L59.8765 88.4357C65.3994 89.0927 70.0478 90.0743 73.3424 91.2776C74.9909 91.8804 76.3012 92.5374 77.2248 93.2604C78.1428 93.9773 78.7059 94.792 78.7077 95.7044V99.9492C78.7096 100.471 78.5127 100.966 78.1859 101.419L77.8931 101.207H78.2532C78.2625 107.588 78.5992 133.001 78.5992 135.141C78.5992 137.114 78.2406 149.099 78.2406 153.437C78.2406 153.9 78.2443 154.274 78.2537 154.535C78.3397 157.118 78.6535 160.708 78.9462 163.648C79.2371 166.587 79.5074 168.872 79.5074 168.876L79.5093 168.883V168.892L79.513 169.005C79.5149 169.613 79.1263 170.077 78.6591 170.336C78.1859 170.605 77.6097 170.727 77.0485 170.729C76.5977 170.727 76.1567 170.648 75.7831 170.462C75.415 170.282 75.0924 169.957 75.0245 169.504L75.3814 169.45L75.0283 169.529C73.5412 162.773 72.4225 139.858 72.4188 133.842C72.4188 130.74 72.3253 122.745 72.235 115.78L72.5975 115.774L72.9108 115.955C71.8632 117.746 69.3286 119.24 65.7356 120.486C62.139 121.728 57.47 122.689 52.1519 123.252L52.1145 122.893H52.4745C52.4839 128.337 52.6303 136.936 53.3172 149.243L53.3963 150.758L53.3981 150.829C53.4038 151.325 53.0792 151.706 52.6999 151.903C52.3151 152.107 51.8512 152.194 51.3784 152.196C50.8621 152.194 50.3365 152.091 49.8987 151.86C49.4671 151.636 49.0916 151.238 49.0598 150.69L49.4199 150.668L49.0598 150.7C48.9242 149.177 47.727 133.821 47.1578 123.291L47.5184 123.272L47.539 123.633C45.4743 123.753 43.3358 123.819 41.149 123.819C38.4343 123.819 35.8062 123.717 33.2982 123.534L33.3243 123.173L33.6844 123.166C33.8331 130.47 33.9814 137.752 33.9814 139.993C33.9814 140.436 33.9833 141.06 33.9833 141.835C33.9833 148.927 33.9459 168.763 33.2023 181.125C33.1667 181.748 32.7403 182.204 32.2357 182.467C31.725 182.737 31.1035 182.86 30.4969 182.861C29.9395 182.859 29.3933 182.758 28.9486 182.518C28.5071 182.289 28.1428 181.857 28.1465 181.296L28.1503 181.204L28.5108 181.232L28.1508 181.21C28.3757 177.556 28.4622 173.569 28.4622 169.579C28.4622 157.043 27.6097 144.533 27.5442 142.344C27.4932 140.763 27.3413 131.452 27.2005 122.57L27.5629 122.565L27.5124 122.923C19.6503 121.821 13.6392 119.848 11.0016 117.301L11.2527 117.042L11.6114 117.081C10.9282 123.242 9.7717 130.599 7.80618 137.75C6.22767 143.5 4.67895 149.258 3.16009 155.023C2.5081 157.492 1.86228 159.962 1.22262 162.434L1.21888 162.449L1.21514 162.463C1.05147 162.938 0.70447 163.274 0.308372 163.467C-0.0877266 163.664 -0.534331 163.739 -0.97018 163.739C-1.49207 163.737 -1.99901 163.632 -2.40586 163.45C-2.61069 163.358 -2.7912 163.249 -2.93758 163.103C-3.08208 162.96 -3.20226 162.761 -3.20414 162.519L-3.17982 162.339L-2.83048 162.433L-3.18122 162.347C-3.17982 162.339 -2.45169 159.38 -1.233 154.207C-0.0161753 149.031 1.68981 141.646 3.6385 132.811C6.21056 121.151 6.64594 111.16 6.64594 105.741C6.64594 102.97 6.53371 101.405 6.53371 101.402L6.8938 101.376L6.79793 101.725C6.24797 101.558 5.98516 101.083 5.80885 100.702C5.63582 100.311 5.56848 99.9674 5.56474 99.9529L5.91968 99.8814L5.56661 99.9604C5.4801 99.5624 4.93762 97.7863 4.18892 95.4041C3.06423 91.8243 1.45551 86.819 0.129732 82.7098C-0.658751 80.2693 -1.44908 77.8295 -2.24124 75.3902L-2.31233 75.1704L0.625438 72.4145L0.873291 72.6773L0.526298 72.777C-2.68037 61.5244 -9.98878 47.3098 -10 35.8561C-10 34.3994 -9.88169 32.988 -9.61653 31.6286C-9.05909 28.7413 -7.85817 25.349 -4.26663 22.7246C-0.677429 20.1001 5.23832 18.2492 15.1857 18.2492C15.5518 18.2492 15.9236 18.251 16.2991 18.2566C21.1052 18.3207 28.0381 18.5966 34.8695 21.0485C39.9472 22.8728 44.922 25.753 48.7408 30.097C49.8309 31.3415 50.8031 32.6844 51.6449 34.1085C54.4083 38.7626 55.6994 44.2008 55.6994 50.0937C55.6994 50.3715 55.6962 50.6492 55.6901 50.9294L55.33 50.9214L54.9676 50.9139C54.9732 50.6399 54.9769 50.3658 54.9769 50.0937C54.9769 44.3061 53.7096 39.0029 51.0234 34.4766C50.2037 33.0914 49.2579 31.7848 48.1979 30.5736C44.4829 26.346 39.6166 23.5224 34.6253 21.728C27.9235 19.321 21.0748 19.0414 16.2898 18.9796C15.9161 18.974 15.5481 18.9721 15.1861 18.9721C5.3225 18.9703 -0.43519 20.8137 -3.8406 23.3086C-7.24228 25.8036 -8.35715 28.9555 -8.90711 31.7675C-9.16057 33.0722 -9.27702 34.4391 -9.27702 35.8561C-9.28824 47.0245 -2.02847 61.2317 1.22076 72.5782L1.28061 72.7901L-1.64967 75.5403L-1.89753 75.2775L-1.55381 75.1666C-1.55381 75.1666 0.302761 80.8794 2.20983 86.8116C3.10674 89.6015 3.99668 92.3937 4.87963 95.1881C5.63255 97.5852 6.16567 99.3221 6.27229 99.8024L6.27463 99.8098L6.31952 99.9885C6.36629 100.157 6.45841 100.42 6.58421 100.634C6.71001 100.855 6.86761 100.999 6.98966 101.027L7.23565 101.094L7.25435 101.349C7.25435 101.357 7.36893 102.951 7.36893 105.741C7.36893 111.198 6.93167 121.237 4.34464 132.965C0.443521 150.645 -2.47928 162.517 -2.47928 162.519L-2.48115 162.525V162.527L-2.50921 162.519H-2.48115V162.527L-2.50921 162.519H-2.48115L-2.47741 162.528C-2.46432 162.575 -2.2824 162.737 -1.99527 162.838C-1.7114 162.947 -1.33822 163.017 -0.97018 163.017C-0.619443 163.017 -0.275252 162.953 -0.012434 162.821C0.252255 162.686 0.431829 162.506 0.531906 162.226L0.873291 162.345L0.522554 162.254C0.524426 162.253 3.49399 150.713 7.10798 137.558C9.06228 130.46 10.2132 123.137 10.8945 117.002L10.975 116.266L11.5043 116.783C13.8753 119.111 19.8266 121.134 27.6116 122.206L27.9197 122.249L27.9235 122.559C28.0638 131.437 28.2162 140.759 28.2649 142.321C28.3303 144.471 29.1847 157.021 29.1847 169.58C29.1847 173.578 29.0987 177.581 28.8714 181.255V181.26L28.8695 181.296C28.8751 181.542 28.9935 181.712 29.2918 181.884C29.5846 182.045 30.0335 182.141 30.4969 182.139C31.002 182.141 31.5258 182.028 31.8957 181.829C32.2731 181.624 32.4625 181.382 32.4812 181.082C33.2229 168.758 33.2603 148.922 33.2603 141.835C33.2603 141.06 33.2584 140.438 33.2584 139.993C33.2584 137.771 33.1102 130.481 32.9619 123.181L32.9544 122.784L33.3505 122.813C35.8398 122.996 38.453 123.096 41.149 123.096C43.3208 123.096 45.4458 123.032 47.4978 122.912L47.8603 122.892L47.879 123.254C48.4476 133.765 49.6453 149.13 49.7804 150.636V150.645C49.7959 150.87 49.9347 151.057 50.2387 151.222C50.5352 151.381 50.965 151.475 51.3784 151.473C51.7572 151.475 52.1233 151.394 52.3544 151.267C52.5929 151.13 52.6719 151.009 52.6756 150.829V150.797L52.5961 149.282C51.9096 136.962 51.7614 128.35 51.7516 122.893V122.568L52.0766 122.535C57.3516 121.974 61.9758 121.02 65.499 119.803C69.0251 118.596 71.4353 117.094 72.2837 115.594L72.9407 114.453L72.9575 115.771C73.0478 122.737 73.1418 130.729 73.1418 133.842C73.1399 139.783 74.2735 162.784 75.734 169.371L75.7358 169.382L75.7382 169.395C75.7644 169.559 75.8691 169.692 76.1076 169.816C76.3405 169.935 76.6861 170.006 77.0485 170.006C77.4989 170.008 77.974 169.897 78.3004 169.709C78.6311 169.512 78.7887 169.294 78.7905 169.005L78.7887 168.945L79.1487 168.919L78.7905 168.962C78.7905 168.956 77.7056 159.788 77.5325 154.559C77.5205 154.185 77.5155 153.811 77.5176 153.437C77.5176 149.078 77.8763 137.082 77.8763 135.141C77.8763 133.016 77.54 107.595 77.5307 101.207V101.09L77.6003 100.997C77.8632 100.629 77.9852 100.287 77.9852 99.9492V95.7044C77.989 95.1189 77.6134 94.4838 76.7796 93.8291C74.2871 91.8598 68.0131 90.1234 59.79 89.1526L59.6684 89.1376L59.5763 89.0474L59.8297 88.7902L59.6871 89.1222C57.6219 88.2234 56.5445 86.1264 55.9552 84.2998C55.3674 82.4657 55.2697 80.8607 55.2678 80.8439L55.2659 80.8289L55.5213 70.7759L53.5165 69.2967L54.7496 54.5317L54.7478 54.5354C54.87 53.3317 54.9433 52.1236 54.9676 50.9139L55.33 50.9214Z" fill="white" fill-opacity="0.23"/>
</svg>
